<svg xmlns="http://www.w3.org/2000/svg" width="594.079" height="411.045" viewBox="0 0 594.079 411.045">
  <g id="Group_17241" data-name="Group 17241" transform="translate(-452.839 -15397.367)">
    <g id="Group_1300" data-name="Group 1300" transform="translate(451.724 15397.367)">
      <g id="Group_1298" data-name="Group 1298" transform="matrix(0.999, 0.035, -0.035, 0.999, 10.696, 23.263)">
        <path id="Path_2099" data-name="Path 2099" d="M152.315,27.341c2.515.058,5.019.1,7.535.185,5.966.185,11.943.312,17.908.612a240,240,0,0,1,32.124,3.312,48.228,48.228,0,0,1,6.046,1.627,17.192,17.192,0,0,1,3.381,1.627c1.154.692,2.6,1.535,2.181,3.069-.4,1.5-2.089,1.569-3.415,1.8a13.423,13.423,0,0,1-5.285-.565c-10.57-2.4-21.312-2.954-32.089-3.427-6.381-.288-12.773-.819-19.154-.669-9.854.231-19.7-.335-29.539-.127-4.5.092-9,.219-13.5.173-1.835-.023-1.858.012-2.446,2.031-1.569,5.308-3.035,10.65-4.673,15.946a206.278,206.278,0,0,1-10.616,28.143A103.038,103.038,0,0,1,93.306,94.15a6.453,6.453,0,0,0-1.119,4.119c.219,5.354-.069,8.158.658,13.8,1.108,8.643,3.035,11.781,5.435,16.42a26.211,26.211,0,0,0,6.485,8.4c1.962,1.627,2.354,1.592,4.292.012a26.335,26.335,0,0,0,5.377-6.116c1.477-2.285,3.485-2.435,5.758-2.031,1.408.254,1.8.958,1.615,2.469a14.609,14.609,0,0,1-14.389,12.808,21.356,21.356,0,0,1-15.589-6.3,42.377,42.377,0,0,1-8.977-13.154c-2.2-4.835-2.377-7.408-4.315-15.046-.415-1.638-.3-1.823-1.9-1.35a21.751,21.751,0,0,1-7.166.485,8.642,8.642,0,0,1-7.662-4.65,32.039,32.039,0,0,1-2.3-6.473c-.2-.623-.4-.819-.912-.127a38.315,38.315,0,0,1-6.566,7.166,13.8,13.8,0,0,1-10.119,3.45c-6.4-.45-8.666-4.189-8.019-9.958,1.073-9.681,5.931-17.527,13.177-23.9A18.751,18.751,0,0,1,61,69.527a10.827,10.827,0,0,1,4.789,1.362c2.285,1.315,2.746,2.885,1.685,5.273a5.145,5.145,0,0,1-.254.577c-.485.808-1.419,1.638-1.362,2.389.069.923,1.546.5,2.273,1.1A3.647,3.647,0,0,1,69.755,83.1c.092,3.346.3,6.692.358,10.039a27.453,27.453,0,0,0,1.789,8.55c.4,1.177,1.119,1.362,2.146.808.554-.3,1.1-.612,1.662-.877A3.13,3.13,0,0,0,77.6,98.374c0-4.823.127-9.635.3-14.458a155.683,155.683,0,0,1,2.169-18.347c1.142-7.327,2.689-14.562,4.477-21.762.577-2.331,1.339-4.615,1.973-6.923.231-.819.035-1.569-1-1.4-5,.854-10.039,0-15.047.519a11.77,11.77,0,0,1-2.181.231c-5.135-.381-10.246.335-15.37.427-6.785.127-13.558.762-20.331,1.189-2.815.173-5.642.265-8.458.369-5.746.219-11.493.831-17.262.415a11.971,11.971,0,0,1-5.677-1.6C-.435,36-.4,34.541,1.319,33.641c1.985-1.038,4.212-1.1,6.392-1.315Q14.1,31.7,20.5,31.091c4.569-.438,9.15-.9,13.72-1.292,5.412-.462,10.835-.854,16.247-1.315,3.023-.254,6.058-.2,9.092-.438,5.1-.415,10.246-.381,15.37-.485,4.5-.081,8.989-.623,13.5-.323,1.3.092,1.8-.635,2.239-1.731a98.285,98.285,0,0,1,5.8-11.816,84.174,84.174,0,0,1,6.392-9.312C106,.225,110.187-.513,114.918.283a4.967,4.967,0,0,1,3.889,3.3,15.37,15.37,0,0,1,1.131,4.858,59.4,59.4,0,0,1-.842,14.989c-.669,3.335-.577,3.346,2.7,3.392q12.739.208,25.466.427c1.708.011,3.381.058,5.054.092Zm-59.078,48.5c0,.115-.023.323-.012.531.046.508.127,1.027.185,1.535.265-.427.565-.831.785-1.269a198.841,198.841,0,0,0,12.935-35.193,23.425,23.425,0,0,0,1.362-5.746c-1.985-.9-4.119-.185-6.139-.531-1.558-.265-2.065.623-2.354,1.835-.542,2.227-1.073,4.454-1.569,6.692-1.754,7.823-2.942,15.75-4.212,23.666C93.756,70.127,93.56,72.942,93.236,75.838ZM45.466,98.893c.012.092-.1.9.173,1.05.681.392.946-.485,1.385-.808a5.9,5.9,0,0,0,.865-.912c4.742-5.25,8.123-11.4,11.585-17.493A1.719,1.719,0,0,0,59.463,79c-.958-2.423-.946-2.458-2.723-.762A40.323,40.323,0,0,0,46.655,93.931,14.577,14.577,0,0,0,45.466,98.893Zm66.025-81.775c.046-1.985.1-3.958.127-5.942.012-.438-.185-.877-.658-.9-.208-.012-.508.335-.646.588A81.019,81.019,0,0,0,105.1,21.849c-.612,1.581-1.685,3.046-1.477,4.892,1.627.5,3.312.127,4.95.277,1.373.127,2.019-.369,2.308-1.823A43,43,0,0,0,111.491,17.118Z" transform="translate(282.82 113.205)"/>
        <path id="Path_2100" data-name="Path 2100" d="M88.341,45.163c-.046,1.881-.1,3.773-.127,5.654a4.227,4.227,0,0,0,.208.9,3.351,3.351,0,0,0,.739-.508c2.123-2.181,4.189-4.408,6.346-6.542a100.486,100.486,0,0,1,15.6-13.131,16.03,16.03,0,0,1,10.373-2.677c3.819.277,5.262,2.792,5.469,5.665a26.442,26.442,0,0,1-1.027,7.431c-1.119,5.089-2.527,10.119-3.646,15.22-.669,3.058-1.027,6.185-1.512,9.277a2.262,2.262,0,0,0-.012.623c.715,4.6-.1,4.939,4.246,2.458,9.462-5.412,16.835-13.05,22.927-22a4.462,4.462,0,0,0,.669-3.577c-1.385-6.946-2.781-13.893-4.062-20.862-.981-5.331-2.169-10.65-1.8-16.143a13.452,13.452,0,0,1,.623-3.369A4.467,4.467,0,0,1,146.876.335c3.715-.669,7.339-.554,10.246,2.389,6.669,6.75,9.773,14.631,7.973,24.231a59.762,59.762,0,0,1-5.273,15.023,8.61,8.61,0,0,0-.75,5.723,100.614,100.614,0,0,1,2.2,17.689c.138,8.354-2.608,15.589-9.335,21.012-6.162,4.973-13.016,7.9-21.058,7.581a17.5,17.5,0,0,1-5.781-1.315,5.906,5.906,0,0,1-2.769-1.985,1.436,1.436,0,0,1,.762-2.458,7.871,7.871,0,0,1,5.25.219,7.81,7.81,0,0,0,6.635-.6,25.734,25.734,0,0,0,14.47-18.623,41.229,41.229,0,0,0,.8-9.669c-.012-.277.023-.646-.369-.692a.738.738,0,0,0-.542.242c-.773.854-1.523,1.731-2.285,2.585a58.451,58.451,0,0,1-15.173,12.566,23.618,23.618,0,0,1-13.235,3.127c-5.862-.381-9.127-3.542-9.4-9.589-.185-4.119.762-8.123,1.788-12.058,1.431-5.446,3.092-10.835,4.65-16.246.115-.4.335-.773.415-1.177.173-.9.288-1.812.427-2.723-.762.5-1.569.935-2.285,1.5a107.81,107.81,0,0,0-14.7,14.6A115.737,115.737,0,0,0,88.2,67.11c-.6.981-1.292,1.9-1.962,2.839a4.485,4.485,0,0,1-2.5,1.812,13.857,13.857,0,0,1-8.019-.15,3.3,3.3,0,0,1-2.423-3.577,87.321,87.321,0,0,1,1.235-10.258c.819-6,1.985-11.977,1.95-18.07a28.407,28.407,0,0,0-1.05-7.742,8.467,8.467,0,0,0-1.373-2.8,4.462,4.462,0,0,0-4.362-1.973c-4.431.681-8.85,1.477-13.27,2.239a1.611,1.611,0,0,0-1.281.785c-.035.081.589.485.923.715,4.419,3.012,7.546,6.969,8.608,12.277.912,4.558.554,8.977-2.446,12.82a11.532,11.532,0,0,1-9.162,4.719c-1.569.046-3.15,0-4.719-.069A13.707,13.707,0,0,1,35.412,50.99a6.373,6.373,0,0,0-.946-2.3c-.554.612-1.131,1.2-1.638,1.846a73.332,73.332,0,0,1-8.458,9.289c-1.085.981-2.273,1.846-3.415,2.758-4.246,3.381-9.185,3.231-14.1,2.5a7.179,7.179,0,0,1-5.481-4.315A12.928,12.928,0,0,1,0,55.34,61.112,61.112,0,0,1,.992,42.532,110.276,110.276,0,0,1,6.981,22.467a38.43,38.43,0,0,1,2.954-5.885A5.857,5.857,0,0,1,17.1,14.413a2.039,2.039,0,0,1,1.5,2.412,22.574,22.574,0,0,1-.531,2.446A217.851,217.851,0,0,0,11.677,47c-.565,3.577-.9,7.292.1,10.916.369,1.339.531,1.4,1.662.623,3.935-2.7,7-6.277,10.039-9.9,2.954-3.542,5.666-7.269,8.377-11a8.833,8.833,0,0,1,10.766-3.381,4.536,4.536,0,0,1,3.219,3.508c.612,2.781.335,5.619.888,8.4a19.76,19.76,0,0,0,2.215,6.808c1.419,2.273,2.377,2.354,3.969.254,3.231-4.258,3.485-8.792.415-14.043-2.308-3.935-6.069-5.954-10.373-7.039a10.449,10.449,0,0,1-3.208-1.2c-1.846-1.2-1.777-2.342.2-3.45a11.174,11.174,0,0,1,2.942-1.038,179.825,179.825,0,0,1,20.943-3.773,45.78,45.78,0,0,1,12.866.277c5.019.888,8.4,4,10.154,8.827A32.375,32.375,0,0,1,88.341,45.163Zm68.679-21.531c.335-4.823-1.339-9.035-3.946-12.958a3.2,3.2,0,0,0-.358-.519c-.3-.312-.519-.162-.542.185A7.8,7.8,0,0,0,152.2,11.9c.831,5.989,1.95,11.908,3.254,17.816.069.3.173.6.254.888.138-.277.3-.542.427-.819C156.973,27.821,156.777,25.686,157.019,23.632Z" transform="translate(396.746 162.169)"/>
        <path id="Path_2101" data-name="Path 2101" d="M.172,52.079c-.012-2.5-.208-5.019.612-7.466.888-2.619,1.95-3.519,4.777-3.612.208-.012.415-.012.623-.012,4.615,0,5.354.762,5.181,5.273-.023.727.023,1.465-.046,2.192A7.881,7.881,0,0,0,13.1,53.949c7.835,11.262,15.923,22.339,24.439,33.1a324.469,324.469,0,0,0,29.481,32.2c.912.877,1.788,1.765,2.712,2.631a3.5,3.5,0,0,0,.8.427,2.573,2.573,0,0,0,.219-.888c-.208-2.077-.45-4.154-.7-6.219-.577-4.765-.946-9.554-1.419-14.331-.358-3.542-.265-7.1-.692-10.639-.427-3.519-.312-7.108-.427-10.662-.265-7.742-.323-15.508-.012-23.239.231-5.642.392-11.319.888-16.939.9-10.085,1.627-20.2,4.315-30.035A19.239,19.239,0,0,1,75.52,2.775C76.985.79,78.9-.352,81.474.1c1.454.254,2.054,1.165,1.454,2.492-3.519,7.719-3.7,16.016-4.339,24.231a169.251,169.251,0,0,0-.9,16.939c.208,8.689.242,17.377.669,26.043q.606,12.2,1.9,24.37c1.558,14.746,3.473,29.435,7.742,43.709.808,2.7,1.673,5.389,2.365,8.123.681,2.689.069,3.877-2.585,4.777-4,1.362-11.273,1.362-14.989-4.039-3.265-4.731-6.854-9.254-10.558-13.673A170.346,170.346,0,0,0,50,120,237.241,237.241,0,0,1,16.061,78.48c-.4-.612-.773-1.246-1.2-1.835-.138-.2-.427-.288-.635-.438a2.165,2.165,0,0,0-.092.6c1.038,7.327,1.812,14.7,2.9,22.027,1.512,10.223,3.369,20.377,5.712,30.439a164.266,164.266,0,0,0,5.365,18.97,9.459,9.459,0,0,0,2.735,4.489c1.188.969.923,1.973-.415,2.712a7.39,7.39,0,0,1-7.916-1.154,13.879,13.879,0,0,1-2.965-4.4,120.273,120.273,0,0,1-6.866-19.154A363.807,363.807,0,0,1,4.315,93.5C3.08,86.419,2.157,79.276,1.349,72.111.807,67.334.553,62.534.068,57.757A46.661,46.661,0,0,1,.172,52.079Z" transform="translate(68.389 0)"/>
        <path id="Path_2102" data-name="Path 2102" d="M84.993,69.438c.069-8.746,2.123-17.181,4.108-25.616.623-2.642.692-2.677-1.373-4.177a89.532,89.532,0,0,1-7.558-6.139c-.288-.265-.635-.738-.981-.508-.254.162-.3.738-.335,1.142-.438,5.308-.7,10.616-2.077,15.82a39.05,39.05,0,0,1-32.989,28.8c-7.569.946-15.289.6-22.466-2.827-9.127-4.35-14.8-11.7-18.347-20.943C-.094,46.972-.567,38.618.552,30.252c.9-6.739,3.508-12.866,8.689-17.666a18.768,18.768,0,0,1,15.97-4.835c8.931,1.188,14.077,6.589,16.27,16.223,2.435,10.7.415,20.735-4.212,30.428a63.3,63.3,0,0,1-7.9,12.427c-1.362,1.7-1.292,1.892.612,3.012A14.313,14.313,0,0,0,42.057,71.3c12.923-4.258,21.335-12.912,24.658-26.147,2.158-8.55,1.719-17.2-.035-25.8a22.947,22.947,0,0,0-1.8-4.339c-1.2-2.815-.462-4.581,2.562-5.065,4-.635,7.708-.462,10.777,3.231,3.946,4.742,8.469,9,12.762,13.454.438.45.935.842,1.385,1.281.681.669,1.246.681,1.638-.277.312-.773.565-1.569.865-2.354a87.727,87.727,0,0,1,7.5-15.854,51.411,51.411,0,0,1,3.946-5.273c2.977-3.646,6.808-4.639,11.25-3.946,1.927.3,2.942,1.154,3.092,2.562.231,2.042-.727,4.523-2.3,4.685-2.389.254-3.058,1.938-3.912,3.565a185.293,185.293,0,0,0-10.2,24.254c-.715,2.031-.669,2.089,1.015,3.3,7.558,5.458,15.173,10.823,23.5,15.081,1.1.565,2.389,1.062,2.389,2.608,0,.946-1.442,1.846-3.265,1.962a23.889,23.889,0,0,1-11.043-1.812,139.065,139.065,0,0,1-13.72-6.958c-.554-.3-1.062-.669-1.615-.969-.842-.473-1.315-.254-1.546.727-.877,3.646-1.835,7.281-2.723,10.927-.969,3.958-1.4,8.019-2.019,12.046-.588,3.773-.035,7.512.5,11.239.208,1.442.6,2.862.773,4.3.208,1.673-.288,2.331-1.962,2.6a5.548,5.548,0,0,1-5.412-1.7c-2.169-2.469-2.931-5.5-3.612-8.562C84.716,76.557,84.981,72.98,84.993,69.438ZM14.134,35.479c-.369,3.889.346,7.916,1.165,11.9A40.733,40.733,0,0,0,20.007,59.6c1.662,2.862,1.881,1.927,2.977.138A60.932,60.932,0,0,0,29.792,44a35.784,35.784,0,0,0-.3-20.943,18.491,18.491,0,0,0-3.935-7.062c-2-2.158-2.458-2.192-4.558-.277a16.986,16.986,0,0,0-3.969,5.573A32.518,32.518,0,0,0,14.134,35.479Z" transform="translate(0 184.108)"/>
        <path id="Path_2104" data-name="Path 2104" d="M112.126,73.483a61.129,61.129,0,0,1-24.324-4.8,3.143,3.143,0,0,0-3.646.588c-5.585,4.892-12.162,6.681-19.489,6.254a23.655,23.655,0,0,1-22-18.75A33.629,33.629,0,0,1,42.7,43.367c.335-1.962.242-3.969.9-5.885.369-1.062-.254-1.546-1.327-1.465a8.7,8.7,0,0,1-.946-.023,43.015,43.015,0,0,0-5.966-.092c-2.088.254-3.058,2.389-4.685,3.5a64.978,64.978,0,0,1-7.142,4.546c-.738.369-.819.808-.046,1.327.865.577,1.685,1.246,2.515,1.869,6.346,4.812,8.123,11.193,6.1,18.67a33.638,33.638,0,0,1-8.446,14.862C20.37,84.053,16.447,86,11.589,85.645c-.935-.069-1.881-.069-2.827-.081C3.016,85.449-1.092,81.1.258,74.672c.8-3.8,1.142-7.639,1.95-11.412a50.188,50.188,0,0,1,5.527-13.6c.15-.277.312-.542.473-.808,1.339-2.227,1.339-2.239-1.292-2.954A7.9,7.9,0,0,1,2.8,43.76a1.9,1.9,0,0,1,.381-3.185A4.747,4.747,0,0,1,5.8,39.594c2.4-.023,4.835-.312,7.166.519a5.766,5.766,0,0,0,4.558-.346,43.84,43.84,0,0,0,8.308-5.042c1.062-.808,1.038-1.038-.254-1.639A32.171,32.171,0,0,1,20.612,30.4c-9.531-6.646-9.773-17.608-3.9-25.962A10.5,10.5,0,0,1,23.566.316,16.5,16.5,0,0,1,43.009,13.793a20.765,20.765,0,0,1-1.835,12.831,33.4,33.4,0,0,1-1.639,3.035c-.635,1.05-.046,1.177.808,1.269a13.724,13.724,0,0,0,5.885-.646,14.614,14.614,0,0,1,7.119-.438c2.862.438,3.889,1.581,3.5,4.454a134.232,134.232,0,0,0-.854,15.37,24.715,24.715,0,0,0,4.535,14.746,11.586,11.586,0,0,0,1.362,1.719c4.062,4.1,5.839,4.235,10.558,2.146a27.451,27.451,0,0,0,4.892-2.815c1.246-.877,1.269-1.2.012-2.042a23.574,23.574,0,0,1-7.3-7.258A23.228,23.228,0,0,1,67.6,36.294a11.6,11.6,0,0,1,11.285-8.366c4.408-.035,8.8-.127,12.958,1.754,3.508,1.592,6.2,3.935,7.027,7.881a14.588,14.588,0,0,1-.242,6.542,61.535,61.535,0,0,1-6.3,15.335c-1.015,1.812-1.038,1.869.8,2.815a58.033,58.033,0,0,0,16.57,5.585c4.8.842,9.6.646,14.412.831a6.418,6.418,0,0,1,3.635.75c.877.6.958,1.338.15,2.031a7.732,7.732,0,0,1-3.715,1.581,23.453,23.453,0,0,1-6.542.588C116.049,73.495,114.468,73.529,112.126,73.483ZM22.77,13.413c-.346,6.75,2.585,11.181,7.858,14.308.992.588,1.708.542,2.365-.462a18.634,18.634,0,0,0,3.427-12.1A12.234,12.234,0,0,0,30.813,5.5C27.709,3.489,25.9,3.951,24.3,7.228A13.433,13.433,0,0,0,22.77,13.413Zm67.986,30c.358-7.073-2.412-8.989-6.023-10.1-1.915-.588-2.919-.069-3.865,1.7a9.934,9.934,0,0,0-.681,1.742c-1.477,4.846-.565,9.5,1.2,14.043a17.862,17.862,0,0,0,2.908,4.812c.577.7,1.119.912,1.662-.012C88.483,51.34,90.479,46.9,90.756,43.413ZM23.024,60.144a11.639,11.639,0,0,0-1.765-6.6c-.358-.612-.981-1.465-1.5-1.477-.762-.023-.819,1.015-1.027,1.708-.288,1-.669,1.973-.969,2.977-1.258,4.2-2.562,8.377-2.6,12.843a19.445,19.445,0,0,1-.785,3.981c-.138.612-.4,1.188-.508,1.8-.058.381-.058,1,.162,1.165.346.242.692-.231.969-.508a30.273,30.273,0,0,0,6.946-11.066A12.212,12.212,0,0,0,23.024,60.144Z" transform="translate(304.962 32.136)"/>
        <path id="Path_2106" data-name="Path 2106" d="M36.792,35.159c-.554,4.789-.75,10.846-1.442,16.893-.554,4.881-1.062,9.773-1.892,14.585a120.858,120.858,0,0,1-6.4,23.516c-.646,1.65-1.269,3.323-1.973,4.95a4.84,4.84,0,0,0-.115,3.658c3.358,9.716,7.223,19.189,12.739,27.924a37.086,37.086,0,0,0,5.792,7.4,11.609,11.609,0,0,0,5.008,3.127,5.193,5.193,0,0,1,1.685.819,1.02,1.02,0,0,1,.012,1.823,6.118,6.118,0,0,1-3.842,1.119,16.381,16.381,0,0,1-8.8-2.954,42.8,42.8,0,0,1-10.939-11.158A98.944,98.944,0,0,1,19.3,114.776c-.485-.923-.923-1.881-1.465-2.781-.219-.369-.635-.542-.946-.023-.265.45-.485.923-.75,1.385-2,3.554-3.969,7.131-6.012,10.662a24.493,24.493,0,0,1-2.458,3.635,5.37,5.37,0,0,1-6.312,1.281,1.94,1.94,0,0,1-1.246-2.527,26.243,26.243,0,0,1,1.119-2.919c2.885-6.739,6.185-13.27,9.531-19.777a8.646,8.646,0,0,0,.531-7.662C7.472,85.825,5.4,75.186,4,64.375A149.49,149.49,0,0,1,2.961,35.563,76.941,76.941,0,0,1,7.83,12.035a35.788,35.788,0,0,1,3.9-7.142c4.2-6.116,15.323-7.246,20.193.946a32.675,32.675,0,0,1,4.108,12.416A104.592,104.592,0,0,1,36.792,35.159ZM15.48,30.809a106.709,106.709,0,0,0-.115,17.077A195.391,195.391,0,0,0,18.4,72.417c.381,2.054.773,4.1,1.177,6.15.058.3.15.623.531.658s.5-.288.588-.565c.1-.3.162-.6.265-.9a166.089,166.089,0,0,0,6.116-29.008c.462-3.415.6-6.877,1.085-10.281a68.59,68.59,0,0,0-.438-21.231A23.321,23.321,0,0,0,23.43,6.577c-.877-1.131-1.338-1.119-2.169-.012A18.352,18.352,0,0,0,18.573,12.2,65.5,65.5,0,0,0,15.48,30.809Z" transform="translate(172.761 113.004)"/>
        <path id="Path_2108" data-name="Path 2108" d="M25.264,1.806a15.784,15.784,0,0,1,5.7.785c4.269,1.754,5.885,5.331,4.281,9.646a7.972,7.972,0,0,1-.669,1.419c-.4.658-.369,1.2.381,1.512,1.892.8,2.192,2.342,2.065,4.142-.162,2.285-.242,4.558-.577,6.854a25.1,25.1,0,0,0,2.689,15.185c.635,1.258,1.062,1.281,2.169.335a26.565,26.565,0,0,0,5.4-6.5,73.252,73.252,0,0,0,6.646-15.531c.288-.9.542-1.8.8-2.7a3.747,3.747,0,0,1,3.889-2.989c.623-.012,1.258-.012,1.881.023,2.919.173,4.189,1.177,4.6,4.119.381,2.689.45,5.412.623,8.123.046.623-.058,1.269.012,1.881.2,1.546.45,3.092.681,4.639,1.327-.946,1.662-2.527,2.354-3.854A187.149,187.149,0,0,1,80.073,8.233a61.379,61.379,0,0,1,3.8-5.008A10,10,0,0,1,95.05.767a6.566,6.566,0,0,1,3.439,3.877,21.352,21.352,0,0,1,1.5,7.016c.15,3.762.785,7.512.5,11.285-.392,5.239.485,10.454.358,15.693a51.892,51.892,0,0,0,.819,7.142,20.273,20.273,0,0,1,.162,2.5,1.888,1.888,0,0,1-1.731,1.9c-2.723.612-4.673-.346-5.942-2.9A19.374,19.374,0,0,1,92.592,42.2a151.425,151.425,0,0,1-2.25-17.366c-.288-4.269-.877-8.516-1.015-12.808a4.577,4.577,0,0,0-.277-1.223c-.115-.358-.081-.9-.577-.9-.208,0-.462.392-.635.646a129.228,129.228,0,0,0-8.1,14.158c-2.089,4.339-4.1,8.7-6.219,13.016a36.07,36.07,0,0,1-2.873,4.858,6.468,6.468,0,0,1-6.185,3,5.617,5.617,0,0,0-.623-.012c-5.527-.092-6.612-.981-7.9-6.416-.092-.4-.231-.808-.358-1.2-.115-.346.023-.842-.438-.958-.1-.023-.346.473-.5.738A29.2,29.2,0,0,1,49.3,44.683a14.045,14.045,0,0,1-19.3.162c-.923-.831-1.465-.842-2.319-.012-4.8,4.742-10.777,4.869-16.766,3.7-4.742-.923-7.8-4.373-9.5-8.827C-.652,34.31-.26,28.772,1.344,23.371A34.417,34.417,0,0,1,15.317,4.586,14.367,14.367,0,0,1,25.264,1.806ZM13.4,31.818a15.756,15.756,0,0,0,2.112,9.023c.819,1.35,1.188,1.385,2.435.369a24.377,24.377,0,0,0,6.058-8.273,6.377,6.377,0,0,0,.658-4.235,17.223,17.223,0,0,1,.069-5.908c.508-3.508.831-7.039,1.2-10.558a17.367,17.367,0,0,0,.012-2.192c-.012-.415-.035-.877-.45-1.073-.45-.2-.785.162-1.085.438A32.343,32.343,0,0,0,13.4,31.818Z" transform="translate(210.494 176.381)"/>
        <path id="Path_2110" data-name="Path 2110" d="M.153,16.247c.1-4.523.173-8.3.288-12.069C.545.75,1.376-.011,4.838,0A14.7,14.7,0,0,1,6.718.116a3.506,3.506,0,0,1,3.289,2.85,70.482,70.482,0,0,1,1.558,8.608c.738,6.116,1.4,12.243,2.1,18.358a5.17,5.17,0,0,0,.254.819,8.761,8.761,0,0,0,.531-.75,79.508,79.508,0,0,1,5.735-9.369c2.135-2.931,4.846-4.558,8.55-4.258a2.805,2.805,0,0,0,.312,0c6.7.046,9.912,2.215,12.3,8.562.877,2.342,1.477,4.789,2.227,7.177a3.327,3.327,0,0,0,.5.785,7.5,7.5,0,0,0,.508-.727c2.365-4.431,4.7-8.873,7.108-13.281C53.646,15.3,56.1,12.035,58.366,8.631c2.227-3.346,5.342-3.75,8.839-3.173a4.645,4.645,0,0,1,3.554,2.815,13.254,13.254,0,0,1,1.223,5.135,88.279,88.279,0,0,1-2.031,19.616c-1.4,7.166-2.931,14.32-3.242,21.647a15.1,15.1,0,0,0,.081,2.5,3.046,3.046,0,0,0,1.685,2.758c1.235.6,1.085,1.569-.115,2.285A5.859,5.859,0,0,1,60.708,60a14.054,14.054,0,0,1-1.65-5.689,69.412,69.412,0,0,1,.185-17.227,23.183,23.183,0,0,0,.242-2.815A88.717,88.717,0,0,1,60.95,21.2a11.817,11.817,0,0,0,.115-1.569c0-.2-.035-.554-.138-.577-.358-.1-.415.265-.542.5-.369.635-.738,1.269-1.073,1.915-3.531,6.773-6.427,13.835-9.392,20.874-.565,1.35-1.142,2.7-1.7,4.05a5.571,5.571,0,0,1-5.862,3.808c-.727-.035-1.465-.023-2.2-.046-4.05-.15-5.619-1.35-6.589-5.342-1.223-5.077-2.331-10.177-3.485-15.266-.231-1-.427-2.735-1.015-2.758-1.258-.058-1.442,1.558-1.927,2.515A91.6,91.6,0,0,0,20.1,50.344c-.485,2.135-.969,4.281-1.419,6.416-.646,3.035-2.158,4.408-5.781,4.65A33.758,33.758,0,0,1,8.2,61.317c-3.242-.254-5.089-1.719-5.654-4.869A112.7,112.7,0,0,1,.834,44.366,250.011,250.011,0,0,1,.153,16.247Z" transform="translate(228.139 60.976)"/>
        <path id="Path_2117" data-name="Path 2117" d="M21.015,33.329C11.6,33.006,5.334,29.914,1.988,22.379A21.191,21.191,0,0,1,.88,7.413,10.843,10.843,0,0,1,3.615,2.9,9.071,9.071,0,0,1,14.507,1.067,15.8,15.8,0,0,0,19,2.267a29.5,29.5,0,0,1,15.358,8.539c4.523,4.719,4.823,9.612,1.142,15A16.227,16.227,0,0,1,21.015,33.329Zm-7.8-22.224a22.484,22.484,0,0,0,1.269,8.008,13.8,13.8,0,0,0,2.942,5.123c2.285,2.469,2.989,2.539,5.319.242a24.069,24.069,0,0,0,2.608-3.115,6.873,6.873,0,0,0,.15-8.192,17.257,17.257,0,0,0-9.046-6.912,6.14,6.14,0,0,0-1.235-.219,1.312,1.312,0,0,0-1.708,1.315C13.388,8.6,13.307,9.848,13.215,11.106Z" transform="translate(159.149 65.448)"/>
        <path id="Path_2121" data-name="Path 2121" d="M4.1,4.853A5.32,5.32,0,0,1,.948,4C-.344,3.18-.332,1.807,1.087,1.022A7.089,7.089,0,0,1,7.71.653c1.35.612,1.454,2.042.335,3.069A5.513,5.513,0,0,1,4.1,4.853Z" transform="translate(403.632 162.925)"/>
        <path id="Path_2125" data-name="Path 2125" d="M37.5,39.742c.208,6.981-.992,14.908-1.119,22.881-.012.842-.058,1.685-.069,2.539,0,.335-.127.75.3.935.092.035.45-.335.623-.554.531-.692,1.073-1.385,1.546-2.112,4.489-6.762,8.631-13.65,10.812-21.37,3.542-12.554-.773-22.674-11.816-30.739a37.27,37.27,0,0,0-16.9-7.062A19.483,19.483,0,0,0,8.556,6.545c-1.95,1.085-2.146,1.823-1.292,4,.312.8-.069,1-.692,1.212A5.578,5.578,0,0,1,1.229,10.2,3.44,3.44,0,0,1,.5,5.783a6.725,6.725,0,0,1,2.781-2.6A26.25,26.25,0,0,1,15.468.037c3.242-.1,6.5.023,9.739.219a35.032,35.032,0,0,1,9.969,2.365C43.3,5.587,50.257,9.972,55.657,16.249c7.039,8.192,8.9,17.2,5.492,27.047a69.787,69.787,0,0,1-9.485,17.331A102.809,102.809,0,0,1,36.676,77.866a3.6,3.6,0,0,0-1.3,2.723c-.358,8.25-.312,21.035.162,26.551.669,7.927,1.258,15.866,2.585,23.735a15.49,15.49,0,0,0,1.419,4.581c.762,1.465.392,1.939-1.373,2.423a7.116,7.116,0,0,1-8-2.954,31.049,31.049,0,0,1-3.289-9.346c-1.592-6.877-6.392-31.974-6.116-41.92a121.7,121.7,0,0,1,.865-14.781c.138-.923.127-1.869.173-2.8.415-7.673,1.373-15.3,2.354-22.927a164.886,164.886,0,0,1,3.058-17.723c.023-.092.012-.185.035-.277.946-4.05,2.862-5.2,7.3-4.35,1.512.288,2.665.888,2.919,2.515a20.2,20.2,0,0,1,.369,3.623C37.691,30.857,37.611,34.792,37.5,39.742Z" transform="translate(107.58 168.33)"/>
        <path id="Path_2126" data-name="Path 2126" d="M.085,62.68C.5,56.426.927,50.172,1.55,43.918c.335-3.323.669-6.658,1.073-9.969.612-4.973,1.338-9.935,2.262-14.85C5.842,13.975,7.054,8.9,8.219,3.821,8.9.821,10.331-.125,13.677.013c3.2.127,4.754,1.408,5.2,4.315A41.345,41.345,0,0,1,19,14.321c-.958,10.535-3.485,20.781-5.262,31.166-1.015,5.966-2.181,11.919-2.8,17.931-.45,4.35-1.315,8.712-.935,13.131a3.752,3.752,0,0,1,.012.623c-.138,1.5.277,3.231-1.812,3.877a5.062,5.062,0,0,1-5.873-1.765A13.24,13.24,0,0,1,.535,73.665,56.457,56.457,0,0,1,.085,62.68Z" transform="matrix(0.999, -0.035, 0.035, 0.999, 570.392, 137.198)"/>
        <path id="Path_2127" data-name="Path 2127" d="M6.454,14.528a18.451,18.451,0,0,1-2.5-.069C.742,14.008-.7,11.643.327,8.551a17.063,17.063,0,0,1,5.123-7.4A4.134,4.134,0,0,1,7.366.127c2.688-.531,3.727.612,2.862,3.2C9.616,5.17,9.6,5.181,11.462,5.839a13.035,13.035,0,0,1,3.577,1.915c2.573,1.95,2.469,3.623-.415,5.215C12.108,14.378,10.527,14.816,6.454,14.528Z" transform="matrix(0.999, -0.035, 0.035, 0.999, 570.235, 229.594)"/>
      </g>
      <text id="YOU_HAVE_CONVINCED_ME_" data-name="YOU HAVE CONVINCED ME!" transform="translate(367.505 53.69)" font-size="44" font-family="Leafy"><tspan x="-155.1" y="0">YOU HAVE CONVINCED ME!</tspan></text>
      <g id="Group_1297" data-name="Group 1297" transform="matrix(0.995, 0.105, -0.105, 0.995, 453.711, 91.041)">
        <path id="Path_1981" data-name="Path 1981" d="M28.93,34.736c-10.03-.16-18.415-1.765-26.2-5.978C.044,27.314-.277,26.752.164,23.823,2.611,6.531,18.017-2.094,32.26.433,44.015,2.52,51.718,8.778,55.329,20.052c1.805,5.537.6,7.944-4.814,10.11C45.58,32.208,34.146,35.057,28.93,34.736Zm-1.966-4.012c4.895.361,9.869-.8,14.884-1.926,1.725-.4,2.528-1.083,1.926-3.009-.843-2.728-1.565-5.537-2.247-8.3a1.452,1.452,0,0,1,.963-1.926A1.428,1.428,0,0,1,44.376,16.6a58.294,58.294,0,0,1,2.287,7.823c.522,2.568,1.364,2.728,3.691,1.4a2.624,2.624,0,0,0,1.484-3.169c-1.123-5.135-3.049-9.749-7.462-13a30.073,30.073,0,0,0-14.243-5.3c-7.061-.883-13.24.642-18.575,5.617-3.41,3.169-5.3,7.222-7.1,11.314-1.123,2.528,1.685,6.379,4.493,6.3.963,0,1.4-.8,1.484-1.6a21.545,21.545,0,0,1,2.407-6.259,11.994,11.994,0,0,1,3.33-4.654,1.032,1.032,0,0,1,1.324-.12c.562.4,1,.923.722,1.6-.321.722-.843,1.324-1.2,2.046-1.324,2.568-2.808,5.015-3.531,7.863-.682,2.447-.562,2.768,1.765,3.29A43.263,43.263,0,0,0,26.964,30.724Z" transform="translate(0 34.434)"/>
        <path id="Path_1982" data-name="Path 1982" d="M32.428,15.529c.441,6.5-4.453,12.437-10.792,14.644-4.614,1.565-8.907,1.926-13.36-.481C1.335,25.92-1.553,18.177.814,10.595,2.78,4.416,12.97-2.484,21.195.886c4.253,1.765,8.1,3.731,10.07,8.225A13.825,13.825,0,0,1,32.428,15.529ZM4.184,16.653c-.843,6.78,5.135,10.953,11.073,10.832,7.623-.2,13.32-4.373,13.32-11.8.04-6.5-4.373-11.916-12.036-11.875C9.359,3.855,4.264,9.03,4.184,16.653Z" transform="translate(12.189 0)"/>
      </g>
      <path id="Path_2124" data-name="Path 2124" d="M319.2,80.408c4.586,1.572,3.768,1.731,1.042,5.293-1.571,2.062-4.746,3.736-6.446,5.74-1.732,2.019-.593,4.284,2.2,4.558a7.876,7.876,0,0,0,2.79-.144c7.3-2.019,10.807-4.687,15.873-9.317,3.992-3.663,6.125-6.4,10.839-7.615,3.175-.822,8.963-.332,13.276-1.933,4.682-1.731,6.2-5.178,7.343-9.663,1.619-6.361.866-10.485,1.09-19.615.192-8-.449-17.481-.625-25.5a30.707,30.707,0,0,0-.786-7.514C363.338,5.74,357.374.865,347.257.216c-3.736-.245-7.5-.144-11.256-.144-22.976-.014-213.857,0-236.849,0V.014Q61.8-.007,24.531.029A43.64,43.64,0,0,0,14.8.952C7.568,2.582,3.7,7.01,1.748,13A32.578,32.578,0,0,0,.208,22.341C0,34.139,0,45.951,0,57.764a25.832,25.832,0,0,0,.834,6.88c2.646,9.822,8.161,14.308,20.2,15.346,5.115.447,10.31.288,15.472.26,8.674-.058,17.348-.216,26.023-.346,1.86-.029,238.533.534,250.846.058A27.47,27.47,0,0,1,319.2,80.408ZM308.07,77.033c-10.855-.014-21.148-.058-33.959-.043-25.958.029-219.789.1-245.748.159a46.2,46.2,0,0,1-11.416-1.154c-8.049-2-12.6-6.418-13.083-14.077-.978-14.827-.369-29.682.289-44.495,0-7.312,8.963-14.336,16.579-14.336h2.886c49.784.014,267.473.029,317.258.043,2.646,0,5.291.087,7.937.043,6.141-.1,11.785,5.5,13.4,10.3a25.084,25.084,0,0,1,1.122,7.3c.08,7.2.321,14.38.353,21.577.032,5.841.16,11.711-.337,17.524-.5,5.942-1.154,12.1-7.568,14.336-1.908.663-16.258-.159-22.591,9.216-3.367,4.976-14.35,8.7-14.526,8.913.048-.115,2.614-2.293,2.71-2.365a35.637,35.637,0,0,0,3.576-4.659c1.844-3.851,3.527-5.6-3.672-7.76C318.428,76.687,312.592,77.033,308.07,77.033Z" transform="translate(190.811 0)"/>
    </g>
    <g id="Group_1303" data-name="Group 1303" transform="translate(502.586 15686.796)">
      <path id="Path_2103" data-name="Path 2103" d="M139.325,244.413c.023-1.363-.035-3.362.138-5.349.265-3.062,1.592-4.206,4.685-4.3.519-.012,1.05.012,1.569.035a4.463,4.463,0,0,1,4.512,3.6,100.281,100.281,0,0,1,2.169,11.069c2.019,13.633,3.565,27.348,6.681,40.808a142.91,142.91,0,0,0,7.454,23.593c.115.289.3.774.45.774.554.012.358-.543.45-.855,1.212-4.229,1.881-8.573,2.758-12.859,2.169-10.641,3.819-21.4,6.889-31.842.115-.4.2-.82.323-1.213.785-2.334,1.708-4.575,4.431-5.257,3.162-.8,6.266-.751,9.058,1.144a8.592,8.592,0,0,1,2.746,4.125,97.157,97.157,0,0,1,3.439,10.757q2.354,8.128,4.742,16.256a22.23,22.23,0,0,0,.865,2.357,3.034,3.034,0,0,0,.565.716,2.375,2.375,0,0,0,.3-.716c.1-1.779.5-3.535.658-5.292.554-6.043,1.569-12.027,2.481-18.024.923-6.089,2.227-12.108,3.265-18.186,1-5.869,2.2-11.692,3.646-17.458.2-.809.508-1.594.658-2.415.681-3.651,5.215-3.674,7.442-2.415a1.959,1.959,0,0,1,.819,2.2c-.335,2.912-.658,5.823-1,8.735-.438,3.628-.923,7.256-1.327,10.884-.254,2.288-.658,4.552-.865,6.851-.531,5.719-1.4,11.415-2,17.134-.45,4.275-.658,8.561-1.05,12.836-.577,6.251-.865,12.536-2.215,18.682-.992,4.541-3,6.181-7.581,6.412-4.766.243-8.227-1.56-10.535-5.869A105.246,105.246,0,0,1,187.43,289.1c-.438-1.618-.831-3.235-1.258-4.853-.035-.15-.254-.37-.346-.358a.738.738,0,0,0-.485.335,2.939,2.939,0,0,0-.265.89c-1.235,7.949-2.527,15.9-3.646,23.859a110.693,110.693,0,0,1-2.815,14.766c-.231.809-.5,1.606-.785,2.38A7.313,7.313,0,0,1,171.114,331a28.513,28.513,0,0,1-6.277-.15,10.393,10.393,0,0,1-7.039-4.333,64.231,64.231,0,0,1-7.316-13.506,134.041,134.041,0,0,1-8.2-29.867,190.8,190.8,0,0,1-2.492-22.738A132.687,132.687,0,0,1,139.325,244.413Z" transform="translate(-30.584 -232.719)" fill="#d50250"/>
      <path id="Path_2107" data-name="Path 2107" d="M464.665,298.126c.311,6.124-.554,12.166-.888,18.243a19.868,19.868,0,0,1-.819,4.31c-.831,2.889-3.4,4.61-6.981,4.934a18.654,18.654,0,0,1-15.439-5.372,81.695,81.695,0,0,1-18.474-27.452c-.439-1.028-.969-2.022-1.454-3.027-.888.867-.946,2.08-1.281,3.154-1.488,4.679-2.85,9.416-4.4,14.073-.865,2.588-2.527,3.293-5.169,2.577a1.865,1.865,0,0,1-1.569-2.311c.485-3.42.75-6.9,1.489-10.26.588-2.669.715-5.384,1.142-8.065.992-6.181,1.7-12.42,2.885-18.578a45.155,45.155,0,0,0,.1-14.951c-.162-1.132-.1-2.3-.242-3.443-.231-1.814.762-2.727,2.3-3.235,1.189-.393,2.4-.751,3.623-1.04,3.116-.739,5.331.347,7.073,3.073,2.585,4.055,3.635,8.665,4.985,13.16,2.642,8.8,4.858,17.758,8.3,26.308a120.4,120.4,0,0,0,8.527,17.146,4.055,4.055,0,0,0,.9.809c.081-.393.2-.786.242-1.178a14.329,14.329,0,0,0,.069-1.571c.081-11.542.969-23.061,1.489-34.592a196.555,196.555,0,0,1,2.065-21.883c.312-1.953.554-3.928.935-5.881.681-3.478,1.7-4.275,5.3-4.6a8.452,8.452,0,0,1,2.481.173c2.619.485,2.85.809,2.966,3.489.577,12.7-.127,25.4-.162,38.081C464.631,286.191,465.15,292.165,464.665,298.126Z" transform="translate(10.799 -231.829)" fill="#d50250"/>
      <path id="Path_2109" data-name="Path 2109" d="M262.91,266.477c.023-.947,0-1.895.069-2.831.4-5.777.2-11.461-1.719-17.042-.946-2.773-.127-3.79,2.7-4.379a7.456,7.456,0,0,1,8.5,3.743c2.6,4.552,5,9.208,7.5,13.807,4.592,8.469,9.093,17.007,14.62,24.933,1.2,1.721,2.435,3.408,3.669,5.107.115.15.392.393.427.37a1.613,1.613,0,0,0,.612-.635,3.709,3.709,0,0,0,.208-1.236c-.058-4.725.635-9.4,1-14.107.438-5.627,1.188-11.23,2-16.822a73.577,73.577,0,0,1,1.7-9.243,21.707,21.707,0,0,1,1.212-3.223,5.413,5.413,0,0,1,4.985-3.258c1.858-.069,3.8-.324,5.492.82.658.439,1.085.971.692,1.837-1.858,4.125-.9,8.469-.992,12.732-.012.624.185,1.248.208,1.872.542,13.633.381,27.267-.173,40.889a35.457,35.457,0,0,1-.785,5.592c-.658,3.154-3.046,5.084-6.866,5.4a29.9,29.9,0,0,1-6.589-.15,10.754,10.754,0,0,1-6.739-3.674,153.907,153.907,0,0,1-18.289-24.737c-.473-.82-.935-1.641-1.431-2.438-.208-.323-.646-.878-.762-.832-.4.173-.358.682-.4,1.1-.554,5.014-.658,10.052-.738,15.078-.058,3.016-.485,6.043.646,9.012.669,1.756-.415,3.478-.635,5.222-.046.335-.485.67-.819.89a4.725,4.725,0,0,1-6.912-2.472,28.987,28.987,0,0,1-1.085-5.846c-.369-5.742-1.085-11.45-1.1-17.227C263.06,278.632,262.645,272.555,262.91,266.477Z" transform="translate(-11.862 -231.341)" fill="#d50250"/>
      <path id="Path_2111" data-name="Path 2111" d="M263.422,330.56c.069.393.115.82.208,1.225.288,1.144-.265,1.745-1.269,2.172-2.954,1.282-5.631.081-6.623-3.062a112.6,112.6,0,0,1-3.369-14.962c-1.362-8.03-2.585-16.071-3.785-24.124-.358-2.38-.45-4.783-.669-7.186-.127-1.467-.415-1.791-1.7-1.41-4,1.19-7.973,2.5-11.873,4.009a2.345,2.345,0,0,0-1.512,2.172c-.554,4.356-1.269,8.712-1.535,13.09-.2,3.247-.9,6.447-.912,9.694-.012,1.814-1.177,2.669-2.608,3.143a12.3,12.3,0,0,1-8.619-.2c-2.181-.878-2.539-1.779-2.3-4.148.5-4.9.865-9.809,1.338-14.708.127-1.329-.265-1.941-1.662-1.918a4.826,4.826,0,0,1-2.931-1.017c-1.3-.947-1.4-2-.208-3.131a9.7,9.7,0,0,1,3.45-2.149c2-.7,2.6-2.184,2.735-4.1a72.214,72.214,0,0,1,.658-7.2c.554-3.189.669-6.459,1.027-9.682.565-5.1.658-10.237,1.454-15.32.323-2.068.069-4.182.75-6.228.612-1.86,1.3-2.484,3.346-2.611,2.55-.15,4.073.578,4.662,2.3a8.558,8.558,0,0,1,.265,1.537c.092.6-.092,1.479.646,1.606.8.139.715-.855.946-1.34a37.433,37.433,0,0,1,3.623-5.881,10.544,10.544,0,0,1,12.381-3.628,9.056,9.056,0,0,1,5,4.968,40.638,40.638,0,0,1,3.046,10.837,136.7,136.7,0,0,1,1.673,16.533c.3,6.274.519,12.559.877,18.833.438,7.614.854,15.24,1.777,22.83.554,4.564.773,9.162,1.154,13.749C263.018,327.013,263.583,328.735,263.422,330.56ZM247.36,276.87c-.023-.266-.035-.474-.058-.682-.427-6.667-.912-13.333-1.246-20.011a79,79,0,0,0-1.108-9.624c-.058-.3-.162-.6-.242-.9a4.518,4.518,0,0,0-.577.682,45.7,45.7,0,0,0-3,7.21,218.065,218.065,0,0,0-6.75,26.643c-.15.763-.092,1.144.888.89,3.623-.947,7.269-1.814,10.9-2.738C246.944,278.164,247.51,277.748,247.36,276.87Z" transform="translate(-19.297 -232.087)" fill="#d50250"/>
      <path id="Path_2112" data-name="Path 2112" d="M102.648,243.782c3.358.4,5.977.451,8.446,1.525,2.146.936,3.127,1.86,2.827,2.958-.277.994-1.95,1.906-3.877,1.329-2.8-.832-5.619-.3-8.412-.543a45.555,45.555,0,0,0-5.319.127c-.519.012-.635.277-.6.82.577,9.89-1.362,19.618-2.054,29.428-.669,9.474-1.281,18.96-.623,28.469.127,1.849.185,3.7.162,5.546-.012,1.179.508,1.179,1.362.994,2.458-.531,4.927-1.051,7.4-1.513a19.192,19.192,0,0,1,6.231-.451c1.962.289,3.392,1.109,3.254,2-.242,1.5-1.523,2.045-2.642,2.588-3.635,1.756-7.546,2.646-11.354,3.871-1.454.474-2.942.589-3.681,2.542-.485,1.271-2.181,1.363-3.392.947-2.25-.774-4.269-.058-6.416.543-7.685,2.161-15.323,4.575-23.181,6a32.455,32.455,0,0,1-9.693.046,6.943,6.943,0,0,1-4.165-2.068,1.68,1.68,0,0,1,.265-2.773,4.914,4.914,0,0,1,2.6-1.109c7.789-.624,15.15-3.351,22.708-5.084,3.381-.774,6.727-1.675,10.073-2.588,1.765-.474,1.892-.647,1.442-2.507a115.963,115.963,0,0,1-2.677-18.706c-.381-5.43-.6-10.872-.6-16.326a98.827,98.827,0,0,1,.9-13.079,65.628,65.628,0,0,1,3.542-15.6c.462-1.178,0-1.352-.854-1.283-3.542.289-7.085.589-10.627.971-3.854.416-7.7.913-11.539,1.41a40.685,40.685,0,0,0-8.55,2.08,8.041,8.041,0,0,1-6.992-.4c-1.915-1.1-2.042-2.6-.358-4.136a12.684,12.684,0,0,1,4.154-2.311,55.5,55.5,0,0,1,14.77-2.946c7.6-.659,15.22-1.132,22.858-1.063C93.186,243.551,98.31,243.274,102.648,243.782Z" transform="translate(-45.07 -231.049)" fill="#d50250"/>
      <path id="Path_2113" data-name="Path 2113" d="M331.06,282.644c.519-12.894,1.915-26.065,5.839-38.879a35.526,35.526,0,0,1,2.85-6.955,7.493,7.493,0,0,1,9.5-3.27c1.454.6,2,1.386,1.812,3.258-.289,2.912-.658,5.823-1.154,8.712q-1.61,9.272-2.746,18.6c-.6,4.98-1.4,9.936-1.985,14.916-.346,2.912-.6,5.835-.831,8.746-.519,6.47-.958,12.975-1,19.468a113.266,113.266,0,0,0,.692,17.238c.265,1.814-.242,2.426-2.054,2.9a6.006,6.006,0,0,1-7.292-3.813,43.65,43.65,0,0,1-2.2-11.034A269.923,269.923,0,0,1,331.06,282.644Z" transform="translate(-1.065 -232.684)" fill="#d50250"/>
      <path id="Path_2114" data-name="Path 2114" d="M401.641,255.114c-.681,6.655-.9,13.368-2.065,19.988-1.373,7.822-2.527,15.69-3.831,23.524-1.073,6.389-2.25,12.755-3.335,19.145a29.231,29.231,0,0,0-.254,3.767,1.944,1.944,0,0,1-1.408,1.872,7.76,7.76,0,0,1-6.115-.277,2.938,2.938,0,0,1-1.812-2.415,38.564,38.564,0,0,1-.242-9.717,40.683,40.683,0,0,0,.45-5.014c.092-7.984,1.073-15.9,1.927-23.8.889-8.2,1.9-16.418,3.415-24.54.611-3.281.992-6.62,1.638-9.89.335-1.687.519-3.616,2.642-4.286a8.394,8.394,0,0,1,6.981.543,3.359,3.359,0,0,1,1.512,2.958C401.307,249.673,401.964,252.365,401.641,255.114Z" transform="translate(6.829 -231.127)" fill="#d50250"/>
      <path id="Path_2115" data-name="Path 2115" d="M482.7,290.741c.415-6.262.842-12.524,1.465-18.787.335-3.327.669-6.666,1.073-9.982.612-4.98,1.338-9.948,2.262-14.87.958-5.13,2.169-10.214,3.335-15.3.681-3,2.112-3.951,5.458-3.813,3.2.127,4.754,1.41,5.2,4.321a41.452,41.452,0,0,1,.115,10.006c-.958,10.549-3.485,20.808-5.262,31.207-1.015,5.973-2.181,11.935-2.8,17.955-.45,4.356-1.315,8.723-.935,13.148a3.758,3.758,0,0,1,.012.624c-.138,1.5.277,3.235-1.812,3.882a5.058,5.058,0,0,1-5.873-1.768,13.269,13.269,0,0,1-1.788-5.627A56.607,56.607,0,0,1,482.7,290.741Z" transform="translate(18.887 -225.021)" fill="#d50250"/>
      <path id="Path_2119" data-name="Path 2119" d="M486.141,322.546a18.429,18.429,0,0,1-2.5-.069c-3.208-.451-4.65-2.819-3.623-5.916a17.085,17.085,0,0,1,5.123-7.406,4.132,4.132,0,0,1,1.915-1.028c2.688-.531,3.727.612,2.862,3.2-.612,1.849-.623,1.86,1.235,2.519a13.027,13.027,0,0,1,3.577,1.918c2.573,1.953,2.469,3.628-.415,5.222C491.795,322.4,490.214,322.835,486.141,322.546Z" transform="translate(18.436 -212.588)" fill="#d50250"/>
      <path id="Path_2118" data-name="Path 2118" d="M347.376,233.16a128.943,128.943,0,0,1,27.993,3.339,10.86,10.86,0,0,1,4.662,1.745c1.212.982,1.119,1.941-.254,2.669a4.128,4.128,0,0,1-2.089.624,62.286,62.286,0,0,1-7.212-.358c-1.973-.312-3.946-.4-5.931-.566-7.627-.612-15.254-1.028-22.9-1.109a111.177,111.177,0,0,0-15.935,1.167,54.928,54.928,0,0,1-6.877.266,3.573,3.573,0,0,1-1.535-.231c-.715-.335-1.662-.531-1.685-1.629-.012-.878.646-1.317,1.281-1.652a17.762,17.762,0,0,1,3.162-1.363,77.551,77.551,0,0,1,12.589-2.5C337.557,232.964,342.472,233.287,347.376,233.16Z" transform="translate(-3.441 -232.65)" fill="#d50250"/>
      <path id="Path_2122" data-name="Path 2122" d="M97.228,339.986c-4.569-.092-7.408-.763-8.539-2.3-1.546-2.08-.635-3.882,5.031-5.222,7.373-1.733,16.085-2.623,24.981-3.316,20.643-1.606,41.851-2.542,63.14-3.362,27.174-1.04,41.412-.289,68.909-.6,18.6-.208,55.986-.139,74.679.266,39.37.855,63.9,1.525,102.164,3.512,13.466.7,26.989,1.063,40.42,1.8,14.008.774,19.766.451,16.085,4.518-1.742,1.929-5.539,2.727-11.873,2.819-19,.277-38.089.127-57.2-.092-27.012-.312-54.013-.52-81.036-.867-16.143-.208-32.262-.427-48.382-.427q-31.951,0-63.821.277c-17.493.173-34.9.531-52.351.82-19.327.312-38.332,1.1-57.394,1.825C107.278,339.813,102.42,339.859,97.228,339.986Z" transform="translate(-38.461 -218.37)" fill="#d50250"/>
    </g>
  </g>
</svg>
