<svg id="Group_17114" data-name="Group 17114" xmlns="http://www.w3.org/2000/svg" xmlns:xlink="http://www.w3.org/1999/xlink" width="53.018" height="53.018" viewBox="0 0 53.018 53.018">
  <defs>
    <clipPath id="clip-path">
      <rect id="Rectangle_3015" width="53.018" height="53.018" transform="translate(0 0)" fill="none"/>
    </clipPath>
  </defs>
  <g id="Group_17113"  clip-path="url(#clip-path)">
    <path id="Path_11626" d="M26.512,0c-7.2,0-8.1.03-10.928.159A19.488,19.488,0,0,0,9.146,1.391,13.578,13.578,0,0,0,1.391,9.148,19.46,19.46,0,0,0,.159,15.582C.03,18.409,0,19.309,0,26.51s.03,8.1.159,10.932a19.49,19.49,0,0,0,1.232,6.433,13.59,13.59,0,0,0,7.752,7.752,19.514,19.514,0,0,0,6.438,1.232c2.827.129,3.727.159,10.928.159s8.1-.03,10.928-.159a19.514,19.514,0,0,0,6.438-1.232,13.587,13.587,0,0,0,7.752-7.752,19.465,19.465,0,0,0,1.232-6.434c.129-2.831.159-3.732.159-10.932s-.03-8.1-.159-10.928a19.435,19.435,0,0,0-1.232-6.434,13.574,13.574,0,0,0-7.752-7.756A19.5,19.5,0,0,0,37.439.159C34.613.03,33.712,0,26.512,0M41.281,14.784a2.736,2.736,0,0,0-.192.775c-.3,1.381-.591,2.764-.885,4.146q-.479,2.25-.959,4.5-.375,1.754-.752,3.507-.474,2.217-.947,4.434-.443,2.073-.884,4.146-.276,1.292-.557,2.582a2.971,2.971,0,0,1-.322.852,1.367,1.367,0,0,1-1.663.7,2.582,2.582,0,0,1-.971-.451Q29.627,37.39,26.1,34.813c-.149-.109-.284-.29-.458-.3s-.288.208-.419.332c-.779.734-1.55,1.474-2.325,2.212q-.627.6-1.257,1.2a1.674,1.674,0,0,1-1.139.5c-.16,0-.169-.014-.158-.163.039-.522.073-1.044.112-1.566q.084-1.124.175-2.249c.027-.336.036-.674.065-1.011.07-.782.106-1.567.156-2.35,0-.076.016-.152.02-.228a.6.6,0,0,1,.239-.439c.981-.868,1.953-1.745,2.928-2.62q2.109-1.89,4.217-3.781l2.559-2.3q2.118-1.905,4.234-3.812a2.014,2.014,0,0,0,.274-.28c.152-.2.072-.388-.176-.422a1.1,1.1,0,0,0-.66.144c-.213.11-.416.239-.619.366l-13.443,8.41Q18.6,27.6,16.77,28.75a.445.445,0,0,1-.42.065q-3.689-1.16-7.382-2.3a2.554,2.554,0,0,1-.926-.47.736.736,0,0,1-.127-1.074,1.839,1.839,0,0,1,.294-.3,3.1,3.1,0,0,1,.786-.463c.708-.279,1.416-.56,2.127-.833Q15.2,21.8,19.291,20.241q4.833-1.848,9.665-3.694,4.3-1.646,8.595-3.3c.477-.183.954-.368,1.432-.549a2.454,2.454,0,0,1,.73-.161,1.362,1.362,0,0,1,1.5,1.088c.016.061.005.133.072.172Z" fill="#666666"/>
  </g>
</svg>
