<svg xmlns="http://www.w3.org/2000/svg" width="53.019" height="53.019" viewBox="0 0 53.019 53.019">
  <path id="Path_5547" data-name="Path 5547" d="M35.348,26.51a8.836,8.836,0,1,1-8.838-8.838,8.837,8.837,0,0,1,8.838,8.838m17.672,0c0,7.2-.03,8.1-.159,10.928a19.51,19.51,0,0,1-1.232,6.438,13.587,13.587,0,0,1-7.752,7.752,19.5,19.5,0,0,1-6.433,1.232c-2.831.129-3.732.159-10.932.159s-8.1-.03-10.928-.159a19.458,19.458,0,0,1-6.433-1.232,13.578,13.578,0,0,1-7.756-7.752A19.51,19.51,0,0,1,.159,37.438C.03,34.611,0,33.71,0,26.51s.03-8.1.159-10.928A19.51,19.51,0,0,1,1.392,9.144,13.055,13.055,0,0,1,4.451,4.451a12.977,12.977,0,0,1,4.7-3.059A19.458,19.458,0,0,1,15.582.159C18.408.03,19.309,0,26.51,0s8.1.03,10.932.159a19.5,19.5,0,0,1,6.433,1.232,13,13,0,0,1,4.693,3.059,13,13,0,0,1,3.059,4.693,19.51,19.51,0,0,1,1.232,6.438c.129,2.827.159,3.727.159,10.928m-12.9,0A13.612,13.612,0,1,0,26.51,40.122,13.611,13.611,0,0,0,40.122,26.51m.539-17.331a3.18,3.18,0,1,0,3.18,3.18,3.181,3.181,0,0,0-3.18-3.18" fill="#f7f7f7"/>
</svg>
