<svg id="Group_17116" data-name="Group 17116" xmlns="http://www.w3.org/2000/svg" xmlns:xlink="http://www.w3.org/1999/xlink" width="53.018" height="53.018" viewBox="0 0 53.018 53.018">
  <defs>
    <clipPath id="clip-path">
      <rect id="Rectangle_3016" width="53.018" height="53.018" transform="translate(0 0)" fill="none"/>
    </clipPath>
  </defs>
  <g id="Group_17115"  clip-path="url(#clip-path)">
    <path id="Path_11627" d="M26.512,0c-7.2,0-8.1.03-10.928.159A19.539,19.539,0,0,0,9.146,1.391,13.578,13.578,0,0,0,1.391,9.148,19.465,19.465,0,0,0,.159,15.582C.03,18.409,0,19.309,0,26.51s.03,8.1.159,10.932a19.48,19.48,0,0,0,1.232,6.433,13.584,13.584,0,0,0,7.752,7.752,19.488,19.488,0,0,0,6.438,1.232c2.827.129,3.727.159,10.928.159s8.1-.03,10.928-.159a19.488,19.488,0,0,0,6.438-1.232,13.587,13.587,0,0,0,7.752-7.752,19.486,19.486,0,0,0,1.232-6.434c.129-2.831.159-3.732.159-10.932s-.03-8.1-.159-10.928a19.465,19.465,0,0,0-1.232-6.434,13.582,13.582,0,0,0-7.752-7.756A19.533,19.533,0,0,0,37.439.159C34.613.03,33.712,0,26.512,0m-3.5,43.112a1.322,1.322,0,0,1-.019-.387q0-7.164,0-14.328c0-.468.051-.41-.418-.41q-2.139,0-4.279,0c-.076,0-.151,0-.227,0-.169-.007-.169-.008-.177-.191,0-.043,0-.086,0-.129V22.381c0-.37-.032-.332.328-.332h4.441c.359,0,.331.024.333-.332.009-1.535-.019-3.069.018-4.6a8.669,8.669,0,0,1,.3-2.01,7.055,7.055,0,0,1,1.226-2.546,6.349,6.349,0,0,1,2.411-1.911,7.858,7.858,0,0,1,2.581-.677,19.99,19.99,0,0,1,3.007-.011c.141.008.281.016.422.017.529,0,1.054.061,1.58.116.15.016.3.02.453.022.111,0,.156.053.15.16,0,.054,0,.108,0,.162V15.2c-.005.214-.005.218-.209.219-.389,0-.778,0-1.167,0-.518,0-1.037-.01-1.556,0a6.016,6.016,0,0,0-1.568.183,1.973,1.973,0,0,0-1.471,1.739,7.407,7.407,0,0,0-.066,1.226q0,1.557,0,3.113c0,.075,0,.151,0,.226,0,.093.038.14.133.138s.173,0,.26,0h5.057c.076,0,.151,0,.227,0,.151.008.159.023.139.177-.1.8-.2,1.6-.307,2.4-.1.748-.2,1.494-.3,2.242-.033.246-.054.493-.083.739-.01.085-.033.169-.045.254s-.068.125-.157.121-.151,0-.227,0H29.478c-.076,0-.152,0-.227,0-.107,0-.162.037-.156.149,0,.054,0,.108,0,.162q0,7.311,0,14.621c0,.065.005.129.008.194Z" fill="#666666"/>
  </g>
</svg>
