<svg xmlns="http://www.w3.org/2000/svg" width="53.019" height="53.019" viewBox="0 0 53.019 53.019">
  <path id="Path_5548" data-name="Path 5548" d="M44.621,0c-7.2,0-8.1.03-10.928.159a19.51,19.51,0,0,0-6.438,1.232A13.578,13.578,0,0,0,19.5,9.148a19.458,19.458,0,0,0-1.232,6.434c-.129,2.827-.159,3.727-.159,10.928s.03,8.1.159,10.932A19.481,19.481,0,0,0,19.5,43.875a13.587,13.587,0,0,0,7.752,7.752,19.51,19.51,0,0,0,6.438,1.232c2.827.129,3.727.159,10.928.159s8.1-.03,10.928-.159a19.51,19.51,0,0,0,6.438-1.232,13.587,13.587,0,0,0,7.752-7.752,19.482,19.482,0,0,0,1.232-6.434c.129-2.831.159-3.732.159-10.932s-.03-8.1-.159-10.928a19.458,19.458,0,0,0-1.232-6.434,13.578,13.578,0,0,0-7.752-7.756A19.51,19.51,0,0,0,55.548.159C52.722.03,51.821,0,44.621,0m6.468,11.316a7.636,7.636,0,0,0,.965,3.654,7.558,7.558,0,0,0,5.063,3.775,6.48,6.48,0,0,0,1.439.177c.237,0,.241.009.241.224v4.542c0,.185-.026.211-.207.194-.582-.043-1.163-.06-1.741-.151a12.68,12.68,0,0,1-4.068-1.37,12.4,12.4,0,0,1-1.547-.991c-.034-.026-.078-.073-.121-.039-.022.022-.017.078-.017.116,0,1.383-.009,2.766.013,4.154.03,2.206.03,4.413.026,6.614A9.164,9.164,0,0,1,49.253,37.9a9.356,9.356,0,0,1-5.619,3.581,8.861,8.861,0,0,1-2.206.22,9.479,9.479,0,0,1-6.2-2.443,9.315,9.315,0,0,1-2.65-4.007,9.772,9.772,0,0,1-.444-2.228,8.433,8.433,0,0,1,.026-1.745,8.87,8.87,0,0,1,1.129-3.525,9.408,9.408,0,0,1,5.408-4.4,9.5,9.5,0,0,1,2.021-.409A10.512,10.512,0,0,1,42,22.9a8.036,8.036,0,0,1,.853.069c.207.026.215.043.215.241v4.718c0,.1-.043.108-.134.082a5.071,5.071,0,0,0-.72-.147A4.353,4.353,0,0,0,38.67,28.94a4.267,4.267,0,0,0-1.456,2.581,4.484,4.484,0,0,0,7.3,4.2A4.268,4.268,0,0,0,46,33.288a3.456,3.456,0,0,0,.1-.758c0-2.641.009-5.283.009-7.924V11.695a.712.712,0,0,1,.043-.379Z" transform="translate(-18.111)" fill="#f7f7f7"/>
</svg>
