<svg xmlns="http://www.w3.org/2000/svg" width="328" height="246" viewBox="0 0 328 246">
  <g id="Group_12092" data-name="Group 12092" transform="translate(-856 -2047)">
    <g id="Rectangle_1623" data-name="Rectangle 1623" transform="translate(856 2047)" fill="#fff" stroke="#707070" stroke-width="1">
      <rect width="328" height="246" stroke="none"/>
      <rect x="0.5" y="0.5" width="327" height="245" fill="none"/>
    </g>
    <g id="Group_12082" data-name="Group 12082" transform="translate(7 731)">
      <g id="Group_12086" data-name="Group 12086" transform="translate(949.415 1373.481)">
        <g id="Layer_3" data-name="Layer 3" transform="translate(0 0)">
          <g id="Group_12084" data-name="Group 12084" transform="translate(0 0)">
            <g id="Group_12083" data-name="Group 12083">
              <path id="Path_2278" data-name="Path 2278" d="M7549.439,3331.074l18.6-18.6a7.575,7.575,0,0,0-10.708-10.716l-18.606,18.6-18.6-18.6a7.577,7.577,0,0,0-10.715,10.716l18.6,18.6-18.6,18.6a7.577,7.577,0,1,0,10.715,10.716l18.6-18.6,18.606,18.6a7.574,7.574,0,1,0,10.708-10.716Z" transform="translate(-7474.984 -3267.334)" fill="#000f1e"/>
              <path id="Path_2279" data-name="Path 2279" d="M7503.347,3245.953c-9.68,0-20.134.274-31.086.815a18.738,18.738,0,0,0-17.856,17.87c-.534,10.946-.8,21.393-.8,31.059s.268,20.113.8,31.059a18.747,18.747,0,0,0,17.85,17.87c10.945.542,21.406.816,31.093.816s20.148-.274,31.094-.816a18.747,18.747,0,0,0,17.85-17.87c.534-10.946.8-21.392.8-31.059,0-9.7-.268-20.148-.795-31.059a18.745,18.745,0,0,0-17.862-17.87c-10.946-.541-21.407-.815-31.088-.815m0,113.485c-9.919,0-20.611-.281-31.782-.837a32.7,32.7,0,0,1-31.144-31.163c-.541-11.171-.814-21.849-.814-31.741s.273-20.57.814-31.741a32.7,32.7,0,0,1,31.151-31.17c11.177-.549,21.87-.83,31.774-.83s20.6.281,31.783.83a32.7,32.7,0,0,1,31.143,31.17c.542,11.135.815,21.814.815,31.741,0,9.891-.273,20.57-.815,31.733a32.7,32.7,0,0,1-31.143,31.171c-11.171.556-21.863.837-31.783.837" transform="translate(-7439.606 -3231.956)" fill="#000f1e"/>
            </g>
            <path id="Path_2280" data-name="Path 2280" d="M7549.439,3331.074l18.6-18.6a7.575,7.575,0,0,0-10.708-10.716l-18.606,18.6-18.6-18.6a7.577,7.577,0,0,0-10.715,10.716l18.6,18.6-18.6,18.6a7.577,7.577,0,1,0,10.715,10.716l18.6-18.6,18.606,18.6a7.574,7.574,0,1,0,10.708-10.716Z" transform="translate(-7474.984 -3267.334)" fill="#000f1e"/>
          </g>
        </g>
      </g>
      <text id="_30PX" data-name="30PX" transform="translate(998.65 1353.903)" fill="#e5007e" font-size="10" font-family="Avenir-Black, Avenir" font-weight="800" letter-spacing="0.11em"><tspan x="0" y="0">30PX</tspan></text>
      <text id="_30PX-2" data-name="30PX" transform="translate(898 1440.318)" fill="#e5007e" font-size="10" font-family="Avenir-Black, Avenir" font-weight="800" letter-spacing="0.11em"><tspan x="0" y="0">30PX</tspan></text>
      <text id="_30PX-3" data-name="30PX" transform="translate(1098.765 1440.318)" fill="#e5007e" font-size="10" font-family="Avenir-Black, Avenir" font-weight="800" letter-spacing="0.11em"><tspan x="0" y="0">30PX</tspan></text>
      <text id="_30PX_OR_LARGER" data-name="30PX OR LARGER" transform="translate(963.084 1530.483)" fill="#e5007e" font-size="10" font-family="Avenir-Black, Avenir" font-weight="800" letter-spacing="0.11em"><tspan x="0" y="0">30PX OR LARGER</tspan></text>
      <g id="Layer_5" data-name="Layer 5" transform="translate(949.304 1373.481)">
        <g id="Group_12085" data-name="Group 12085" transform="translate(0 0)">
          <rect id="Rectangle_1622" data-name="Rectangle 1622" width="127.482" height="127.482" transform="translate(0 0)" fill="none" stroke="#9c9b9b" stroke-miterlimit="10" stroke-width="0.25"/>
          <line id="Line_15" data-name="Line 15" y1="127.482" transform="translate(114.294)" fill="none" stroke="#9c9b9b" stroke-miterlimit="10" stroke-width="0.25"/>
          <line id="Line_16" data-name="Line 16" y1="127.482" transform="translate(109.898)" fill="none" stroke="#9c9b9b" stroke-miterlimit="10" stroke-width="0.25"/>
          <line id="Line_17" data-name="Line 17" y1="127.482" transform="translate(105.502)" fill="none" stroke="#9c9b9b" stroke-miterlimit="10" stroke-width="0.25"/>
          <line id="Line_18" data-name="Line 18" y1="127.482" transform="translate(101.106)" fill="none" stroke="#9c9b9b" stroke-miterlimit="10" stroke-width="0.25"/>
          <line id="Line_19" data-name="Line 19" y1="127.482" transform="translate(96.71)" fill="none" stroke="#9c9b9b" stroke-miterlimit="10" stroke-width="0.25"/>
          <line id="Line_20" data-name="Line 20" y1="127.482" transform="translate(92.314)" fill="none" stroke="#9c9b9b" stroke-miterlimit="10" stroke-width="0.25"/>
          <line id="Line_21" data-name="Line 21" y1="127.482" transform="translate(87.918)" fill="none" stroke="#9c9b9b" stroke-miterlimit="10" stroke-width="0.25"/>
          <line id="Line_22" data-name="Line 22" y1="127.482" transform="translate(83.522)" fill="none" stroke="#9c9b9b" stroke-miterlimit="10" stroke-width="0.25"/>
          <line id="Line_23" data-name="Line 23" y1="127.482" transform="translate(79.126)" fill="none" stroke="#9c9b9b" stroke-miterlimit="10" stroke-width="0.25"/>
          <line id="Line_24" data-name="Line 24" y1="127.482" transform="translate(74.731)" fill="none" stroke="#9c9b9b" stroke-miterlimit="10" stroke-width="0.25"/>
          <line id="Line_25" data-name="Line 25" y1="127.482" transform="translate(70.335)" fill="none" stroke="#9c9b9b" stroke-miterlimit="10" stroke-width="0.25"/>
          <line id="Line_26" data-name="Line 26" y1="127.482" transform="translate(65.939)" fill="none" stroke="#9c9b9b" stroke-miterlimit="10" stroke-width="0.25"/>
          <line id="Line_27" data-name="Line 27" y1="127.482" transform="translate(61.543)" fill="none" stroke="#9c9b9b" stroke-miterlimit="10" stroke-width="0.25"/>
          <line id="Line_28" data-name="Line 28" y1="127.482" transform="translate(57.147)" fill="none" stroke="#9c9b9b" stroke-miterlimit="10" stroke-width="0.25"/>
          <line id="Line_29" data-name="Line 29" y1="127.482" transform="translate(52.751)" fill="none" stroke="#9c9b9b" stroke-miterlimit="10" stroke-width="0.25"/>
          <line id="Line_30" data-name="Line 30" y1="127.482" transform="translate(48.355)" fill="none" stroke="#9c9b9b" stroke-miterlimit="10" stroke-width="0.25"/>
          <line id="Line_31" data-name="Line 31" y1="127.482" transform="translate(43.959)" fill="none" stroke="#9c9b9b" stroke-miterlimit="10" stroke-width="0.25"/>
          <line id="Line_32" data-name="Line 32" y1="127.482" transform="translate(39.563)" fill="none" stroke="#9c9b9b" stroke-miterlimit="10" stroke-width="0.25"/>
          <line id="Line_33" data-name="Line 33" y1="127.482" transform="translate(35.167)" fill="none" stroke="#9c9b9b" stroke-miterlimit="10" stroke-width="0.25"/>
          <line id="Line_34" data-name="Line 34" y1="127.482" transform="translate(30.771)" fill="none" stroke="#9c9b9b" stroke-miterlimit="10" stroke-width="0.25"/>
          <line id="Line_35" data-name="Line 35" y1="127.482" transform="translate(26.375)" fill="none" stroke="#9c9b9b" stroke-miterlimit="10" stroke-width="0.25"/>
          <line id="Line_36" data-name="Line 36" y1="127.482" transform="translate(21.979)" fill="none" stroke="#9c9b9b" stroke-miterlimit="10" stroke-width="0.25"/>
          <line id="Line_37" data-name="Line 37" y1="127.482" transform="translate(17.584)" fill="none" stroke="#9c9b9b" stroke-miterlimit="10" stroke-width="0.25"/>
          <line id="Line_38" data-name="Line 38" y1="127.482" transform="translate(13.188)" fill="none" stroke="#9c9b9b" stroke-miterlimit="10" stroke-width="0.25"/>
          <line id="Line_39" data-name="Line 39" y1="127.482" transform="translate(8.792)" fill="none" stroke="#9c9b9b" stroke-miterlimit="10" stroke-width="0.25"/>
          <line id="Line_40" data-name="Line 40" y1="127.482" transform="translate(4.396)" fill="none" stroke="#9c9b9b" stroke-miterlimit="10" stroke-width="0.25"/>
          <line id="Line_41" data-name="Line 41" y1="127.482" fill="none" stroke="#9c9b9b" stroke-miterlimit="10" stroke-width="0.25"/>
          <line id="Line_42" data-name="Line 42" y1="127.482" transform="translate(123.086)" fill="none" stroke="#9c9b9b" stroke-miterlimit="10" stroke-width="0.25"/>
          <line id="Line_43" data-name="Line 43" y1="127.482" transform="translate(118.69)" fill="none" stroke="#9c9b9b" stroke-miterlimit="10" stroke-width="0.25"/>
          <line id="Line_44" data-name="Line 44" y1="127.482" transform="translate(127.482)" fill="none" stroke="#9c9b9b" stroke-miterlimit="10" stroke-width="0.25"/>
          <line id="Line_45" data-name="Line 45" x2="127.482" transform="translate(0 114.294)" fill="none" stroke="#9c9b9b" stroke-miterlimit="10" stroke-width="0.25"/>
          <line id="Line_46" data-name="Line 46" x2="127.482" transform="translate(0 109.898)" fill="none" stroke="#9c9b9b" stroke-miterlimit="10" stroke-width="0.25"/>
          <line id="Line_47" data-name="Line 47" x2="127.482" transform="translate(0 105.502)" fill="none" stroke="#9c9b9b" stroke-miterlimit="10" stroke-width="0.25"/>
          <line id="Line_48" data-name="Line 48" x2="127.482" transform="translate(0 101.106)" fill="none" stroke="#9c9b9b" stroke-miterlimit="10" stroke-width="0.25"/>
          <line id="Line_49" data-name="Line 49" x2="127.482" transform="translate(0 96.71)" fill="none" stroke="#9c9b9b" stroke-miterlimit="10" stroke-width="0.25"/>
          <line id="Line_50" data-name="Line 50" x2="127.482" transform="translate(0 92.314)" fill="none" stroke="#9c9b9b" stroke-miterlimit="10" stroke-width="0.25"/>
          <line id="Line_51" data-name="Line 51" x2="127.482" transform="translate(0 87.918)" fill="none" stroke="#9c9b9b" stroke-miterlimit="10" stroke-width="0.25"/>
          <line id="Line_52" data-name="Line 52" x2="127.482" transform="translate(0 83.522)" fill="none" stroke="#9c9b9b" stroke-miterlimit="10" stroke-width="0.25"/>
          <line id="Line_53" data-name="Line 53" x2="127.482" transform="translate(0 79.127)" fill="none" stroke="#9c9b9b" stroke-miterlimit="10" stroke-width="0.25"/>
          <line id="Line_54" data-name="Line 54" x2="127.482" transform="translate(0 74.731)" fill="none" stroke="#9c9b9b" stroke-miterlimit="10" stroke-width="0.25"/>
          <line id="Line_55" data-name="Line 55" x2="127.482" transform="translate(0 70.335)" fill="none" stroke="#9c9b9b" stroke-miterlimit="10" stroke-width="0.25"/>
          <line id="Line_56" data-name="Line 56" x2="127.482" transform="translate(0 65.939)" fill="none" stroke="#9c9b9b" stroke-miterlimit="10" stroke-width="0.25"/>
          <line id="Line_57" data-name="Line 57" x2="127.482" transform="translate(0 61.543)" fill="none" stroke="#9c9b9b" stroke-miterlimit="10" stroke-width="0.25"/>
          <line id="Line_58" data-name="Line 58" x2="127.482" transform="translate(0 57.147)" fill="none" stroke="#9c9b9b" stroke-miterlimit="10" stroke-width="0.25"/>
          <line id="Line_59" data-name="Line 59" x2="127.482" transform="translate(0 52.751)" fill="none" stroke="#9c9b9b" stroke-miterlimit="10" stroke-width="0.25"/>
          <line id="Line_60" data-name="Line 60" x2="127.482" transform="translate(0 48.355)" fill="none" stroke="#9c9b9b" stroke-miterlimit="10" stroke-width="0.25"/>
          <line id="Line_61" data-name="Line 61" x2="127.482" transform="translate(0 43.959)" fill="none" stroke="#9c9b9b" stroke-miterlimit="10" stroke-width="0.25"/>
          <line id="Line_62" data-name="Line 62" x2="127.482" transform="translate(0 39.563)" fill="none" stroke="#9c9b9b" stroke-miterlimit="10" stroke-width="0.25"/>
          <line id="Line_63" data-name="Line 63" x2="127.482" transform="translate(0 35.167)" fill="none" stroke="#9c9b9b" stroke-miterlimit="10" stroke-width="0.25"/>
          <line id="Line_64" data-name="Line 64" x2="127.482" transform="translate(0 30.771)" fill="none" stroke="#9c9b9b" stroke-miterlimit="10" stroke-width="0.25"/>
          <line id="Line_65" data-name="Line 65" x2="127.482" transform="translate(0 26.376)" fill="none" stroke="#9c9b9b" stroke-miterlimit="10" stroke-width="0.25"/>
          <line id="Line_66" data-name="Line 66" x2="127.482" transform="translate(0 21.98)" fill="none" stroke="#9c9b9b" stroke-miterlimit="10" stroke-width="0.25"/>
          <line id="Line_67" data-name="Line 67" x2="127.482" transform="translate(0 17.584)" fill="none" stroke="#9c9b9b" stroke-miterlimit="10" stroke-width="0.25"/>
          <line id="Line_68" data-name="Line 68" x2="127.482" transform="translate(0 13.188)" fill="none" stroke="#9c9b9b" stroke-miterlimit="10" stroke-width="0.25"/>
          <line id="Line_69" data-name="Line 69" x2="127.482" transform="translate(0 8.792)" fill="none" stroke="#9c9b9b" stroke-miterlimit="10" stroke-width="0.25"/>
          <line id="Line_70" data-name="Line 70" x2="127.482" transform="translate(0 4.396)" fill="none" stroke="#9c9b9b" stroke-miterlimit="10" stroke-width="0.25"/>
          <line id="Line_71" data-name="Line 71" x2="127.482" fill="none" stroke="#9c9b9b" stroke-miterlimit="10" stroke-width="0.25"/>
          <line id="Line_72" data-name="Line 72" x2="127.482" transform="translate(0 123.086)" fill="none" stroke="#9c9b9b" stroke-miterlimit="10" stroke-width="0.25"/>
          <line id="Line_73" data-name="Line 73" x2="127.482" transform="translate(0 118.69)" fill="none" stroke="#9c9b9b" stroke-miterlimit="10" stroke-width="0.25"/>
          <line id="Line_74" data-name="Line 74" x2="127.482" transform="translate(0 127.482)" fill="none" stroke="#9c9b9b" stroke-miterlimit="10" stroke-width="0.25"/>
        </g>
      </g>
    </g>
  </g>
</svg>
