<svg xmlns="http://www.w3.org/2000/svg" width="41.77" height="46.459" viewBox="0 0 41.77 46.459">
    <path id="explore_express_arrow_Path_5550" data-name="Path 5550"
          d="M17.066.019A30.843,30.843,0,0,0,5.212,2.176a13.612,13.612,0,0,0-3.6,2.072A4.159,4.159,0,0,0,.316,9.216a17.361,17.361,0,0,0,1.7,3.363C3.3,14.7,4.748,16.7,5.943,18.875c.487.881.943,1.782,1.377,2.691a2.039,2.039,0,0,0,1.969,1.307c.445,0,.894.028,1.335-.02,1.233-.129,1.765-.881,1.509-2.18A12.728,12.728,0,0,0,11.069,17.6a49.988,49.988,0,0,0-2.844-4.815,31.894,31.894,0,0,1-2.233-3.8c-.173-.378-.121-.467.26-.406A10.642,10.642,0,0,1,8.614,9.3a37.74,37.74,0,0,1,6.91,3.838A64.953,64.953,0,0,1,27.989,23.811a30.764,30.764,0,0,1,6.906,13.135,29.474,29.474,0,0,1,.679,4.526,7.721,7.721,0,0,1-.256,2.273c-.155.74-.091,1.042.52,1.171,2.089.43,3.413.137,4.055-2.128a10.863,10.863,0,0,0,.147-4.675,30.908,30.908,0,0,0-10.01-18.344A70.049,70.049,0,0,0,15.467,9.381,25.106,25.106,0,0,0,8.12,6.7a15.9,15.9,0,0,0-2.048-.1c-.158-.008-.362.052-.438-.161-.053-.149.068-.27.143-.39A4.382,4.382,0,0,1,7.35,4.67a19.846,19.846,0,0,1,5.194-2,40.327,40.327,0,0,1,5.261-.857,6.035,6.035,0,0,1,2.044.08,9.584,9.584,0,0,0,2.252.137,1.808,1.808,0,0,0,.6-.113c.415-.157.464-.527.113-.817A3.648,3.648,0,0,0,21.63.47,7.97,7.97,0,0,0,18.7.007C18.163.044,17.613.019,17.066.019Z"
          transform="translate(40.197 46.459) rotate(-178)"/>
</svg>
