<svg xmlns="http://www.w3.org/2000/svg" width="53.015" height="53.015" viewBox="0 0 53.015 53.015">
  <path id="Path_5549" d="M62.732,0c-7.2,0-8.105.03-10.932.159a19.458,19.458,0,0,0-6.433,1.232,12.964,12.964,0,0,0-4.7,3.055,12.964,12.964,0,0,0-3.055,4.7,19.459,19.459,0,0,0-1.232,6.434c-.129,2.827-.159,3.732-.159,10.932s.03,8.1.159,10.928a19.459,19.459,0,0,0,1.232,6.434,13.522,13.522,0,0,0,7.752,7.752A19.239,19.239,0,0,0,51.8,52.856c2.827.129,3.732.159,10.932.159s8.1-.03,10.928-.159a19.239,19.239,0,0,0,6.433-1.232,13.522,13.522,0,0,0,7.752-7.752,19.458,19.458,0,0,0,1.232-6.434c.129-2.827.159-3.732.159-10.928s-.03-8.105-.159-10.932a19.458,19.458,0,0,0-1.232-6.434,12.964,12.964,0,0,0-3.055-4.7,12.964,12.964,0,0,0-4.7-3.055A19.458,19.458,0,0,0,73.659.159C70.833.03,69.928,0,62.732,0M76.314,20.374c.009.284.017.573.017.862,0,8.769-6.675,18.878-18.882,18.878a18.74,18.74,0,0,1-10.174-2.982,13.671,13.671,0,0,0,1.581.095,13.324,13.324,0,0,0,8.243-2.84,6.643,6.643,0,0,1-6.2-4.611,6.529,6.529,0,0,0,1.245.116,6.717,6.717,0,0,0,1.75-.228,6.639,6.639,0,0,1-5.326-6.507l0-.086a6.511,6.511,0,0,0,3.008.827,6.639,6.639,0,0,1-2.06-8.855A18.833,18.833,0,0,0,63.2,21.977a6.724,6.724,0,0,1-.168-1.513,6.637,6.637,0,0,1,11.475-4.542,13.148,13.148,0,0,0,4.223-1.612,6.675,6.675,0,0,1-2.922,3.676,13.223,13.223,0,0,0,3.809-1.043,13.448,13.448,0,0,1-3.305,3.43" transform="translate(-36.222)" fill="#666666"/>
</svg>
