<svg id="Group_17112" data-name="Group 17112" xmlns="http://www.w3.org/2000/svg" xmlns:xlink="http://www.w3.org/1999/xlink" width="53.018" height="53.018" viewBox="0 0 53.018 53.018">
  <defs>
    <clipPath id="clip-path">
      <rect id="Rectangle_3014"  width="53.018" height="53.018" transform="translate(0 0)" fill="none"/>
    </clipPath>
  </defs>
  <g id="Group_17111"  clip-path="url(#clip-path)">
    <path id="Path_11625" d="M26.512,0c-7.2,0-8.1.03-10.928.159A19.539,19.539,0,0,0,9.146,1.391,13.58,13.58,0,0,0,1.391,9.148,19.47,19.47,0,0,0,.159,15.582C.03,18.409,0,19.309,0,26.51s.03,8.1.159,10.932a19.48,19.48,0,0,0,1.232,6.433,13.584,13.584,0,0,0,7.752,7.752,19.488,19.488,0,0,0,6.438,1.232c2.827.129,3.727.159,10.928.159s8.1-.03,10.928-.159a19.488,19.488,0,0,0,6.438-1.232,13.581,13.581,0,0,0,7.752-7.752,19.46,19.46,0,0,0,1.232-6.434c.129-2.831.159-3.732.159-10.932s-.03-8.1-.159-10.928a19.445,19.445,0,0,0-1.232-6.434,13.577,13.577,0,0,0-7.752-7.756A19.523,19.523,0,0,0,37.439.159C34.613.03,33.712,0,26.512,0m1.082,42.91H25.416c-.044-.063-.114-.046-.175-.051-.541-.048-1.079-.11-1.614-.2a15.937,15.937,0,0,1-3.123-.883,14.8,14.8,0,0,1-2.752-1.41.586.586,0,0,0-.561-.071q-2.835.922-5.676,1.822c-.094.03-.215.135-.288.052s.033-.194.066-.291q.917-2.752,1.843-5.5a.472.472,0,0,0-.061-.472c-.29-.421-.571-.848-.824-1.293a16.125,16.125,0,0,1-2.1-6.9c0-.061.015-.131-.051-.174V25.42c.064-.044.054-.113.055-.174a11.532,11.532,0,0,1,.2-1.615,16.07,16.07,0,0,1,1.9-5.255,16.434,16.434,0,0,1,10.016-7.721A15.65,15.65,0,0,1,26,10.114a17.4,17.4,0,0,1,1.854.047,16.987,16.987,0,0,1,2.052.3,16.177,16.177,0,0,1,4.3,1.569,16.438,16.438,0,0,1,8.683,13.611,15.9,15.9,0,0,1-.234,3.726,16.4,16.4,0,0,1-6.676,10.523A15.969,15.969,0,0,1,27.8,42.853c-.071.006-.153-.016-.206.057m4.279-7.226c.181-.01.364-.006.543-.032a5.946,5.946,0,0,0,2.278-.87A3.364,3.364,0,0,0,36.3,32.326a5.267,5.267,0,0,0,.077-1.05.526.526,0,0,0-.294-.493c-.085-.043-.168-.092-.254-.135-.677-.335-1.353-.674-2.034-1-.508-.245-1.022-.478-1.537-.708a.948.948,0,0,0-.974.009,1.642,1.642,0,0,0-.416.439c-.342.489-.7.968-1.076,1.431a1.041,1.041,0,0,1-1.122.347,1.816,1.816,0,0,1-.3-.109,12.311,12.311,0,0,1-4.9-3.587,14.916,14.916,0,0,1-1.411-1.977.707.707,0,0,1,.085-.987c.041-.05.085-.1.127-.145.289-.328.581-.653.866-.985a1.259,1.259,0,0,0,.236-1.467c-.482-1.066-.906-2.158-1.359-3.237-.086-.206-.191-.4-.294-.6a.743.743,0,0,0-.637-.414,5.165,5.165,0,0,0-1.179,0,2.251,2.251,0,0,0-1.259.567,5.28,5.28,0,0,0-.413.446,4.919,4.919,0,0,0-1.092,2.174A8.394,8.394,0,0,0,17,21.978,4.155,4.155,0,0,0,17.049,23a8.655,8.655,0,0,0,1.217,3.135,26.227,26.227,0,0,0,2.3,3.147,21.49,21.49,0,0,0,2.839,2.812A14.866,14.866,0,0,0,26.35,34a22.631,22.631,0,0,0,3.73,1.4,6.8,6.8,0,0,0,1.793.286" fill="#666666"/>
  </g>
</svg>
