<svg id="Capa_1" xmlns="http://www.w3.org/2000/svg" viewBox="0 0 1000 1000"><defs><style>.cls-1{fill:#d50a51;}</style></defs><g id="Group_13878"><path id="Path_3400" class="cls-1" d="M979.84,295.38c-28.73-138.36-136.85-246.48-275.21-275.21C637.29,6.49,568.72-.27,500.01,0c-68.72-.27-137.28,6.48-204.63,20.16C157.02,48.9,48.91,157.02,20.19,295.38,6.5,362.72-.26,431.29,0,500.01c-.27,68.72,6.5,137.28,20.18,204.63,28.73,138.36,136.84,246.47,275.19,275.21,67.34,13.67,135.91,20.42,204.63,20.15,68.72,.28,137.28-6.48,204.63-20.15,138.36-28.74,246.47-136.85,275.19-275.21,13.68-67.34,20.44-135.91,20.17-204.63,.28-68.72-6.47-137.28-20.15-204.63m-222.09,412.25c-18.06,17.18-44.4,22.4-67.65,13.4-13.73-4.56-26.46-11.7-37.49-21.05l-151.65-125.31c-26.92,23.12-53.8,46.3-80.63,69.52-21.52,18.52-42.78,37.32-65.27,54.99-12.11,9.65-25.27,17.91-39.23,24.63-18.86,10.96-42.42,9.7-60-3.2-15.45-11.46-21.08-31.98-13.65-49.72,8.46-21.13,20.47-40.66,35.5-57.75,37.97-42.78,78.38-83.85,120.47-123.45-21.05-17.38-42-34.8-63.07-52.15-21.98-18.04-44.12-36.02-65.15-54.99-11.21-9.93-21.18-21.18-29.7-33.5-13.3-15.45-13.05-38.38,.6-53.52,14.12-14.83,35.35-20.51,54.99-14.72,23.53,6.13,46.01,15.75,66.7,28.53,46.43,29.38,91.43,60.35,135,92.93,1.53-1.35,2.97-2.6,4.52-3.85,42.63-34.73,85.7-68.92,131.54-100.25,13.36-9.9,27.91-18.08,43.3-24.35,22.93-9.48,49.17-5.99,68.82,9.15,17.95,14.87,22.77,40.41,11.5,60.8-6.19,12.4-14.92,23.36-25.61,32.18-42.86,36.98-85.76,73.94-128.7,110.89,4.13,3.55,8.4,6.93,12.5,10.5,41.2,36.05,81.88,72.53,119.5,111.6,11.47,10.96,21.41,23.42,29.53,37.05h0l.1,.15-.08-.12c11.82,19.71,9.09,44.88-6.68,61.6"/></g></svg>
