<?xml version="1.0" encoding="utf-8"?>
<!-- Generator: Adobe Illustrator 26.5.0, SVG Export Plug-In . SVG Version: 6.00 Build 0)  -->
<svg version="1.1" id="Layer_1" xmlns="http://www.w3.org/2000/svg" xmlns:xlink="http://www.w3.org/1999/xlink" x="0px" y="0px"
	 viewBox="0 0 383 383.6" style="enable-background:new 0 0 383 383.6;" xml:space="preserve">
<style type="text/css">
	.st0{opacity:0.2;}
	.st1{fill:#FFFFFF;}
</style>
<g class="st0">
	<path id="Path_3407" class="st1" d="M272.6,215.2c-3.1-3.2-6.6-6-10.4-8.3c-12.7-8.3-26.2-15.7-39.7-23c-1.3-0.7-2.7-1.4-4.1-2.1
		c9.4-12.8,18.8-25.6,28.2-38.4c2.4-3.1,4.1-6.7,5-10.4c1.8-6.3-1.1-13-7-15.9c-6.3-2.9-13.7-2.2-19.4,1.8
		c-3.8,2.7-7.3,5.9-10.3,9.4c-10.5,11.5-20.1,23.5-29.6,35.7c-0.3,0.4-0.7,0.9-1,1.3c-14-6.2-28.2-11.8-42.8-16.9
		c-6.5-2.2-13.2-3.4-20-3.6c-5.7-0.4-11.2,2.5-14.1,7.5c-2.8,5-1.4,11.3,3.3,14.6c3.1,2.8,6.5,5.3,10.2,7.3
		c6.9,3.9,14.1,7.4,21.3,10.9c6.9,3.4,13.7,6.9,20.5,10.3c-9,13.5-17.4,27.2-25.1,41.3c-3,5.6-5.1,11.7-6.1,18
		c-0.9,5.3,1.9,10.6,6.9,12.7c5.6,2.4,12.1,1.3,16.6-2.9c3.4-2.7,6.5-5.8,9.2-9.2c5-6.2,9.7-12.7,14.4-19.1
		c5.9-8,11.8-16.1,17.7-24.1c16.4,8.2,32.9,16.5,49.3,24.7c3.6,1.9,7.6,3,11.6,3.4c6.9,1,13.8-2.1,17.6-7.9
		C277.9,226.9,277.1,219.9,272.6,215.2"/>
	<path id="Path_3408" class="st1" d="M235.5,29.5l-0.6,2.8L219,28.9l5.5-25.7l15.9,3.4l-0.6,2.8l-12.4-2.7l-1.8,8.6l10,2.2l-0.6,2.7
		L225,18l-1.9,8.8L235.5,29.5z"/>
	<path id="Path_3409" class="st1" d="M275.4,19.4l-19.9,20.3l-3-1.2l0.1-28.4l2.6,1.1c0.3,0.1,0.5,0.3,0.6,0.5
		c0.1,0.2,0.2,0.5,0.2,0.7l-0.2,20c0,0.4,0,0.9-0.1,1.4c0,0.5-0.1,1-0.2,1.6c0.3-0.5,0.6-0.9,0.9-1.3c0.3-0.4,0.6-0.8,0.9-1.1
		l13.9-14.4c0.2-0.2,0.4-0.3,0.6-0.4c0.3-0.1,0.6-0.1,0.8,0.1L275.4,19.4z"/>
	<path id="Path_3410" class="st1" d="M289.1,54.9l-1.6,2.4l-13.7-8.7L288,26.4l13.7,8.7l-1.6,2.5l-10.7-6.8l-4.7,7.4l8.7,5.5
		l-1.5,2.4l-8.7-5.5l-4.8,7.6L289.1,54.9z"/>
	<path id="Path_3411" class="st1" d="M310.9,77.3l-2.3-2.1c-0.5-0.4-0.7-0.9-0.6-1.5l1.3-11.6c0-0.3,0-0.6-0.1-0.9
		c-0.2-0.3-0.4-0.7-0.7-0.9l-2-1.8l-7.4,8.1l-2.6-2.4l17.7-19.5l5.5,5c1.1,1,2.1,2.1,2.9,3.3c0.6,0.9,1,2,1.2,3.1
		c0.2,1,0.1,2-0.2,2.9c-0.4,1-0.9,1.9-1.6,2.6c-0.6,0.7-1.3,1.2-2.1,1.6c-0.7,0.4-1.6,0.7-2.4,0.8c-0.9,0.1-1.8,0-2.6-0.2
		c-1-0.2-1.9-0.6-2.7-1.1c0.2,0.5,0.2,1.1,0.1,1.6L310.9,77.3z M311,59.1c0.7,0.6,1.4,1.2,2.3,1.6c0.7,0.3,1.4,0.5,2.2,0.5
		c0.7,0,1.4-0.1,2-0.4c0.7-0.3,1.2-0.8,1.7-1.3c1-0.9,1.4-2.3,1.2-3.7c-0.4-1.6-1.3-3-2.6-4l-2.9-2.6l-6.7,7.4L311,59.1z"/>
	<path id="Path_3412" class="st1" d="M346.1,83.8l-5.3-6.7l-18.4,14.4l-2.2-2.8l18.4-14.4l-5.3-6.7l2.4-1.8l12.7,16.2L346.1,83.8z"
		/>
	<path id="Path_3413" class="st1" d="M366.4,113.6L343,125.6l-1.6-3.2l10.6-5.5l-6.5-12.6l-10.7,5.5l-1.6-3.2l23.4-12.1l1.6,3.2
		l-10.4,5.4l6.5,12.6l10.4-5.4L366.4,113.6z"/>
	
		<rect id="Rectangle_2018" x="347.4" y="133.7" transform="matrix(0.9492 -0.3146 0.3146 0.9492 -24.3266 120.2915)" class="st1" width="26.3" height="3.6"/>
	<path id="Path_3414" class="st1" d="M381.9,170.5l-26,4.4l-0.3-1.8c0-0.2,0-0.5,0-0.7c0.1-0.2,0.2-0.5,0.4-0.6l17-18.3
		c-0.3,0.1-0.6,0.1-0.9,0.2c-0.3,0.1-0.6,0.1-0.8,0.2l-18.5,3.1l-0.5-3.1l26-4.4l0.3,1.8c0,0.1,0,0.3,0,0.4c0,0.1,0,0.2,0,0.3
		c0,0.1-0.1,0.2-0.1,0.3c-0.1,0.1-0.2,0.2-0.3,0.3l-17,18.3c0.3-0.1,0.6-0.2,0.9-0.2c0.3-0.1,0.6-0.1,0.8-0.2l18.4-3.1L381.9,170.5z
		"/>
	<path id="Path_3415" class="st1" d="M368.7,209.6l-10.1-0.4c-0.9-1.3-1.6-2.8-2-4.3c-0.4-1.6-0.6-3.3-0.5-5c0-2,0.4-3.9,1.2-5.7
		c0.7-1.6,1.7-3.1,2.9-4.3c1.2-1.2,2.7-2.1,4.3-2.6c1.8-0.6,3.6-0.9,5.5-0.8c1.9,0,3.7,0.4,5.5,1.1c1.6,0.6,3,1.6,4.2,2.8
		c1.2,1.2,2,2.7,2.6,4.3c0.6,1.8,0.9,3.7,0.8,5.6c0,1-0.1,1.9-0.3,2.9c-0.2,0.8-0.4,1.7-0.7,2.5c-0.3,0.7-0.7,1.4-1.1,2.1
		c-0.4,0.6-0.9,1.2-1.4,1.8l-1.6-1.1c-0.2-0.1-0.4-0.4-0.4-0.6c-0.1-0.3,0-0.6,0.2-0.8c0.2-0.3,0.4-0.6,0.7-1
		c0.3-0.4,0.5-0.9,0.8-1.4c0.3-0.6,0.5-1.3,0.6-1.9c0.2-0.9,0.3-1.7,0.3-2.6c0.1-1.4-0.1-2.7-0.6-4c-0.4-1.2-1.1-2.2-2-3.1
		c-0.9-0.9-2-1.6-3.2-2.1c-1.4-0.5-2.8-0.8-4.3-0.8c-1.5-0.1-3,0.1-4.5,0.5c-1.3,0.4-2.4,1-3.4,1.9c-1,0.9-1.7,1.9-2.2,3.1
		c-0.9,2.4-1.1,5-0.6,7.5c0.2,1,0.6,1.9,1,2.8l5.8,0.2l0.1-4.1c0-0.2,0.1-0.4,0.2-0.6c0.1-0.1,0.3-0.2,0.5-0.2l2,0.1L368.7,209.6z"
		/>
	
		<rect id="Rectangle_2019" x="360.7" y="228.8" transform="matrix(0.2825 -0.9593 0.9593 0.2825 27.9301 521.3413)" class="st1" width="3.6" height="26.3"/>
	<path id="Path_3416" class="st1" d="M359.9,273.9c-0.1-0.1-0.2-0.3-0.2-0.5c0-0.2,0-0.3,0.1-0.5c0.1-0.2,0.3-0.4,0.6-0.5
		c0.3-0.2,0.7-0.4,1.1-0.7c0.5-0.3,0.9-0.7,1.2-1.1c0.5-0.5,0.9-1.2,1.2-1.8c0.3-0.6,0.5-1.3,0.6-2.1c0.1-0.6,0-1.2-0.2-1.7
		c-0.2-0.5-0.4-1-0.8-1.4c-0.4-0.4-0.8-0.7-1.3-0.9c-0.6-0.3-1.3-0.4-1.9-0.2c-0.6,0.1-1.2,0.4-1.7,0.8c-0.6,0.4-1.1,0.9-1.6,1.5
		c-0.5,0.6-1.1,1.2-1.7,1.8c-0.6,0.6-1.2,1.2-1.8,1.7c-0.6,0.5-1.3,1-2,1.3c-0.7,0.3-1.5,0.5-2.3,0.5c-0.9,0-1.9-0.2-2.7-0.6
		c-1-0.4-1.9-1.1-2.7-1.9c-0.8-0.7-1.3-1.6-1.7-2.6c-0.4-1-0.6-2.1-0.5-3.3c0.1-1.3,0.4-2.5,0.9-3.7c0.6-1.5,1.6-2.8,2.7-3.9
		c1.1-1,2.4-1.8,3.7-2.3l1.1,1.6c0.1,0.1,0.1,0.3,0.2,0.5c0,0.2,0,0.3-0.1,0.5c-0.1,0.2-0.2,0.3-0.4,0.4c-0.2,0.1-0.4,0.3-0.7,0.4
		c-0.3,0.2-0.6,0.3-0.9,0.5c-0.4,0.2-0.7,0.5-1,0.8c-0.4,0.3-0.7,0.7-1,1.1c-0.4,0.5-0.7,1-0.9,1.6c-0.3,0.7-0.5,1.4-0.6,2.2
		c-0.1,0.7,0,1.3,0.2,1.9c0.2,0.6,0.5,1.1,1,1.6c0.5,0.5,1,0.9,1.6,1.1c0.6,0.3,1.3,0.4,2,0.3c0.6-0.1,1.2-0.4,1.7-0.8
		c0.6-0.4,1.1-0.9,1.6-1.5c0.5-0.6,1.1-1.2,1.6-1.8c0.5-0.6,1.1-1.2,1.7-1.8c0.6-0.5,1.3-1,2-1.3c0.8-0.3,1.6-0.5,2.4-0.5
		c1.9,0.1,3.8,0.9,5.1,2.3c0.6,0.7,1.2,1.5,1.5,2.4c0.3,1,0.5,2,0.4,3c-0.1,1.2-0.4,2.4-0.9,3.4c-0.5,1.3-1.3,2.4-2.3,3.4
		c-0.9,0.9-2,1.6-3.1,2.1L359.9,273.9z"/>
	<path id="Path_3417" class="st1" d="M332.5,313.9c-0.1-0.3-0.2-0.6-0.2-0.9c0-0.3,0.1-0.5,0.3-0.7c0.2-0.2,0.5-0.4,0.8-0.5
		c0.3-0.1,0.7-0.3,1.2-0.5c0.5-0.2,0.9-0.4,1.3-0.7c0.5-0.3,1-0.8,1.3-1.2c0.6-0.7,1-1.6,1-2.5c0-0.8-0.4-1.5-1-1.9
		c-0.4-0.3-0.9-0.5-1.4-0.4c-0.5,0.1-1.1,0.2-1.6,0.5c-0.6,0.3-1.2,0.7-1.7,1.1c-0.6,0.4-1.3,0.8-1.9,1.3c-0.7,0.4-1.4,0.8-2.1,1.1
		c-0.7,0.3-1.5,0.6-2.3,0.6c-0.8,0.1-1.6,0-2.4-0.2c-0.9-0.3-1.8-0.8-2.6-1.4c-0.9-0.7-1.7-1.6-2.3-2.7c-0.6-1-0.9-2.1-1-3.2
		c-0.1-1.2,0-2.4,0.4-3.5c0.4-1.3,1.1-2.5,2-3.6c0.5-0.7,1.1-1.3,1.8-1.8c0.7-0.6,1.4-1.1,2.1-1.5c0.7-0.4,1.5-0.8,2.3-1.1
		c0.7-0.3,1.5-0.5,2.3-0.6l1.1,3.2c0.1,0.3,0.1,0.5,0,0.8c0,0.3-0.1,0.5-0.3,0.7c-0.3,0.3-0.6,0.5-1,0.7c-0.4,0.1-0.9,0.3-1.4,0.5
		c-0.6,0.2-1.1,0.5-1.6,0.8c-0.6,0.4-1.2,0.9-1.6,1.5c-0.6,0.7-1,1.6-1.1,2.5c0,0.9,0.5,1.7,1.3,2.2c0.4,0.4,1,0.6,1.5,0.5
		c0.6,0,1.1-0.2,1.6-0.4c0.6-0.3,1.2-0.7,1.7-1.1c0.6-0.4,1.2-0.9,1.9-1.3c0.7-0.4,1.3-0.8,2.1-1.2c0.7-0.3,1.5-0.5,2.3-0.6
		c0.8-0.1,1.7,0,2.5,0.3c1,0.3,2,0.9,2.8,1.6c0.8,0.6,1.4,1.4,1.9,2.3c0.5,0.9,0.8,1.9,0.9,3c0.1,1.1,0,2.3-0.4,3.4
		c-0.4,1.3-1.1,2.4-1.9,3.5c-0.5,0.6-1.1,1.2-1.6,1.8c-0.6,0.5-1.2,1-1.8,1.4c-0.6,0.4-1.3,0.7-1.9,1c-0.6,0.2-1.3,0.4-1.9,0.5
		L332.5,313.9z"/>
	<path id="Path_3418" class="st1" d="M296.8,336.6c-1.2-1.4-2.1-3-2.7-4.8c-1.2-3.4-0.9-7,0.8-10.2c1.9-3.4,5-6.1,8.6-7.4
		c3.4-1.2,7.1-0.9,10.2,0.8c3.3,1.8,5.8,4.7,7,8.2c0.6,1.6,0.8,3.4,0.7,5.1c-0.1,1.8-0.6,3.5-1.5,5.1c-0.9,1.7-2.2,3.3-3.7,4.5
		c-1.5,1.3-3.2,2.3-5,2.9c-1.7,0.6-3.4,0.8-5.2,0.6c-1.7-0.1-3.4-0.6-5-1.5C299.4,339.2,297.9,338,296.8,336.6 M301.6,332.5
		c0.8,0.9,1.7,1.7,2.7,2.4c0.9,0.6,1.9,0.9,2.9,1.1c1,0.1,2,0.1,2.9-0.3c1-0.3,2-0.9,2.8-1.6c0.8-0.7,1.5-1.6,2.1-2.5
		c0.4-0.9,0.7-1.8,0.7-2.8c0-1-0.2-2.1-0.6-3c-1-2.2-2.6-4.1-4.7-5.4c-0.9-0.6-1.9-0.9-2.9-1.1c-1-0.1-2-0.1-2.9,0.3
		c-1,0.4-2,0.9-2.8,1.6c-0.8,0.7-1.5,1.5-2,2.5c-0.4,0.9-0.7,1.8-0.7,2.8c0,1,0.2,2.1,0.6,3C300.1,330.5,300.8,331.6,301.6,332.5"/>
	<path id="Path_3419" class="st1" d="M267.3,346.5c-0.1,0.1-0.3,0.1-0.4,0.1c-0.2,0-0.3,0-0.5,0l-3.4-1.1c0.2-1.7,0.9-3.4,2-4.8
		c1.2-1.5,2.8-2.8,4.5-3.7c1.6-0.9,3.4-1.5,5.3-1.7c1.7-0.2,3.4,0,5,0.5c1.6,0.5,3.1,1.4,4.4,2.5c1.4,1.2,2.5,2.7,3.4,4.3
		c0.9,1.6,1.5,3.4,1.8,5.3c0.2,1.7,0.1,3.4-0.3,5.1c-0.5,1.7-1.2,3.2-2.3,4.5c-1.2,1.4-2.6,2.6-4.3,3.5c-0.8,0.5-1.7,0.8-2.6,1.1
		c-0.8,0.3-1.7,0.5-2.5,0.6c-0.8,0.1-1.6,0.1-2.4,0c-0.7-0.1-1.5-0.2-2.2-0.4l0.5-3.5c0-0.2,0.1-0.4,0.2-0.6
		c0.1-0.2,0.3-0.4,0.6-0.6c0.2-0.1,0.4-0.2,0.6-0.2c0.2,0,0.5,0,0.7,0c0.3,0,0.5,0,0.9,0.1c0.3,0,0.7,0,1-0.1
		c0.4-0.1,0.9-0.2,1.3-0.3c0.5-0.2,1.1-0.4,1.6-0.7c0.9-0.5,1.6-1.1,2.2-1.9c0.6-0.7,0.9-1.6,1.1-2.5c0.2-1,0.2-2,0-3
		c-0.3-1.2-0.7-2.4-1.3-3.4c-0.6-1.1-1.3-2.1-2.3-2.9c-0.8-0.7-1.7-1.3-2.6-1.6c-0.9-0.3-1.8-0.4-2.8-0.4c-0.9,0.1-1.9,0.4-2.7,0.8
		c-0.5,0.2-0.9,0.5-1.3,0.8c-0.4,0.3-0.7,0.6-1,0.9c-0.3,0.3-0.5,0.6-0.7,1c-0.2,0.4-0.4,0.8-0.6,1.2c-0.1,0.2-0.2,0.3-0.3,0.5
		C267.6,346.3,267.5,346.4,267.3,346.5"/>
	
		<rect id="Rectangle_2020" x="251.1" y="345.5" transform="matrix(0.9365 -0.3508 0.3508 0.9365 -109.7351 111.9758)" class="st1" width="6.2" height="26.8"/>
	<path id="Path_3420" class="st1" d="M212.1,356.2l4.7-1c0.5-0.1,0.9-0.1,1.4,0.1c0.4,0.2,0.7,0.4,0.9,0.8l2.5,4.2l10-2.1l0.6-4.9
		c0.1-0.4,0.3-0.8,0.5-1.1c0.3-0.4,0.7-0.6,1.2-0.7l4.7-1l-4.6,28.3l-6.2,1.3L212.1,356.2z M223.9,364.1l3.9,6.7
		c0.3,0.4,0.6,0.9,0.9,1.5c0.3,0.6,0.7,1.2,1,1.9c0-0.8,0.1-1.5,0.1-2.2c0.1-0.7,0.1-1.2,0.2-1.7l0.9-7.6L223.9,364.1z"/>
	<path id="Path_3421" class="st1" d="M187.8,362.1l-0.2-5l16.1-0.5l0.9,26.8l-6.2,0.2l-0.7-21.8L187.8,362.1z"/>
	<path id="Path_3422" class="st1" d="M144.9,353.5l0.7-2.8l15.8,3.7l-5.9,25.7l-15.8-3.7l0.7-2.8l12.3,2.9l2-8.5l-10-2.3l0.6-2.7
		l10,2.3l2-8.8L144.9,353.5z"/>
	<path id="Path_3423" class="st1" d="M104.8,362.9l20.2-20l2.9,1.3l-0.5,28.4l-2.6-1.1c-0.3-0.1-0.5-0.3-0.6-0.5
		c-0.1-0.2-0.2-0.5-0.2-0.7l0.5-20c0-0.4,0.1-0.9,0.1-1.4c0.1-0.5,0.1-1,0.2-1.6c-0.3,0.4-0.6,0.9-1,1.3s-0.6,0.8-0.9,1.1
		l-14.1,14.2c-0.2,0.2-0.4,0.3-0.6,0.4c-0.3,0.1-0.6,0.1-0.8-0.1L104.8,362.9z"/>
	<path id="Path_3424" class="st1" d="M91.6,327.2l1.6-2.4l13.6,8.9l-14.5,22l-13.6-8.9l1.6-2.4l10.6,7l4.8-7.3l-8.6-5.6l1.5-2.3
		l8.6,5.6l4.9-7.5L91.6,327.2z"/>
	<path id="Path_3425" class="st1" d="M70.2,304.5l2.3,2.2c0.4,0.4,0.7,1,0.5,1.5l-1.4,11.5c-0.1,0.3,0,0.6,0.1,0.9
		c0.2,0.3,0.4,0.7,0.7,0.9l2,1.8l7.5-8l2.6,2.4l-18,19.2l-5.4-5.1c-1.1-1-2-2.1-2.8-3.3c-0.6-0.9-1-2-1.2-3.1c-0.1-1,0-2,0.3-2.9
		c0.4-1,0.9-1.8,1.7-2.6c0.6-0.7,1.3-1.2,2.1-1.6c0.8-0.4,1.6-0.6,2.4-0.7c0.9-0.1,1.8,0,2.6,0.2c0.9,0.2,1.9,0.6,2.7,1.1
		c-0.2-0.5-0.2-1.1-0.1-1.6L70.2,304.5z M69.8,322.7c-0.7-0.6-1.4-1.2-2.2-1.6c-0.7-0.3-1.4-0.5-2.2-0.6c-0.7,0-1.4,0.1-2,0.4
		c-0.7,0.3-1.3,0.7-1.7,1.3c-1,0.9-1.5,2.3-1.3,3.6c0.4,1.6,1.3,3,2.6,4l2.8,2.7l6.8-7.3L69.8,322.7z"/>
	<path id="Path_3426" class="st1" d="M35,297.5l5.1,6.8l18.6-14.1l2.1,2.8l-18.6,14.1l5.2,6.8l-2.4,1.8l-12.5-16.4L35,297.5z"/>
	<path id="Path_3427" class="st1" d="M15.2,267.4l23.6-11.7l1.6,3.2l-10.7,5.3l6.3,12.7l10.7-5.3l1.6,3.2l-23.6,11.7l-1.6-3.2
		l10.5-5.2l-6.3-12.7l-10.5,5.2L15.2,267.4z"/>
	
		<rect id="Rectangle_2021" x="8.3" y="243.7" transform="matrix(0.9539 -0.3 0.3 0.9539 -72.6682 17.7432)" class="st1" width="26.3" height="3.6"/>
	<path id="Path_3428" class="st1" d="M0.6,210.1l26-4l0.3,1.8c0,0.2,0,0.5,0,0.7c-0.1,0.2-0.2,0.5-0.4,0.6L9.1,227.3
		c0.3-0.1,0.6-0.1,0.9-0.2s0.6-0.1,0.8-0.1l18.5-2.8l0.5,3.1l-26,4l-0.3-1.8c0-0.1,0-0.3,0-0.4c0-0.1,0-0.2,0-0.3
		c0-0.1,0.1-0.2,0.1-0.3c0.1-0.1,0.2-0.2,0.3-0.3L21.2,210c-0.3,0.1-0.6,0.1-0.9,0.2c-0.3,0.1-0.6,0.1-0.8,0.2L1,213.2L0.6,210.1z"
		/>
	<path id="Path_3429" class="st1" d="M14.5,171.3l10.1,0.5c0.9,1.3,1.5,2.8,1.9,4.3c0.4,1.6,0.6,3.3,0.5,5c-0.1,2-0.5,3.9-1.3,5.7
		c-0.7,1.6-1.7,3-3,4.2c-1.3,1.2-2.8,2-4.4,2.6c-1.8,0.6-3.6,0.8-5.5,0.7c-1.9-0.1-3.7-0.5-5.4-1.2c-1.6-0.7-3-1.7-4.1-2.9
		c-1.1-1.3-2-2.8-2.5-4.4c-0.6-1.8-0.8-3.7-0.7-5.6c0-1,0.2-1.9,0.4-2.9c0.2-0.8,0.4-1.7,0.8-2.4c0.3-0.7,0.7-1.4,1.2-2.1
		c0.4-0.6,0.9-1.2,1.5-1.7l1.6,1.1c0.2,0.1,0.4,0.4,0.4,0.6c0,0.3,0,0.6-0.2,0.8c-0.2,0.3-0.4,0.6-0.7,1c-0.3,0.4-0.6,0.9-0.8,1.3
		c-0.3,0.6-0.5,1.2-0.7,1.9c-0.2,0.9-0.3,1.7-0.4,2.6c-0.1,1.4,0.1,2.8,0.5,4.1c0.4,1.2,1.1,2.3,1.9,3.2c0.9,0.9,2,1.6,3.2,2.1
		c1.4,0.5,2.8,0.8,4.3,0.9c1.5,0.1,3-0.1,4.5-0.5c1.3-0.4,2.4-1,3.4-1.8c1-0.8,1.7-1.9,2.2-3.1c1-2.4,1.2-5,0.7-7.4
		c-0.2-1-0.6-1.9-1-2.8l-5.8-0.3l-0.2,4.1c0,0.2-0.1,0.4-0.2,0.6c-0.1,0.1-0.3,0.2-0.5,0.2l-2-0.1L14.5,171.3z"/>
	
		<rect id="Rectangle_2022" x="19.4" y="125.8" transform="matrix(0.2966 -0.955 0.955 0.2966 -117.8548 117.981)" class="st1" width="3.6" height="26.3"/>
	<path id="Path_3430" class="st1" d="M24.2,107.2c0.1,0.1,0.2,0.3,0.2,0.5c0,0.2,0,0.3-0.1,0.5c-0.1,0.2-0.3,0.4-0.6,0.5
		c-0.3,0.2-0.7,0.4-1.1,0.7c-0.5,0.3-0.9,0.7-1.3,1.1c-0.5,0.5-0.9,1.2-1.2,1.8c-0.3,0.6-0.5,1.3-0.6,2c-0.1,0.6,0,1.2,0.2,1.8
		c0.2,0.5,0.4,1,0.8,1.4c0.4,0.4,0.8,0.7,1.3,1c0.6,0.3,1.2,0.4,1.9,0.3c0.6-0.1,1.2-0.4,1.7-0.8c0.6-0.4,1.2-0.9,1.7-1.5
		c0.5-0.6,1.1-1.2,1.7-1.8c0.6-0.6,1.2-1.2,1.8-1.7c0.6-0.5,1.3-1,2-1.3c0.7-0.3,1.5-0.5,2.3-0.5c0.9,0,1.9,0.2,2.7,0.7
		c1,0.5,1.9,1.1,2.7,1.9c0.7,0.8,1.3,1.7,1.7,2.7c0.4,1,0.5,2.2,0.4,3.3c-0.1,1.3-0.4,2.5-1,3.7c-0.7,1.5-1.6,2.8-2.8,3.8
		c-1.1,1-2.4,1.7-3.8,2.2l-1.1-1.6c-0.1-0.1-0.1-0.3-0.2-0.5c0-0.2,0-0.3,0.1-0.5c0.1-0.2,0.2-0.3,0.4-0.4c0.2-0.1,0.4-0.3,0.7-0.4
		c0.3-0.2,0.6-0.3,1-0.5c0.4-0.2,0.7-0.5,1.1-0.8c0.4-0.3,0.7-0.7,1-1.1c0.4-0.5,0.7-1,0.9-1.6c0.3-0.7,0.5-1.4,0.6-2.2
		c0.1-0.7,0-1.3-0.2-1.9c-0.2-0.6-0.5-1.1-0.9-1.6c-0.5-0.5-1-0.9-1.6-1.2c-0.6-0.3-1.3-0.4-2-0.3c-0.6,0.1-1.2,0.4-1.8,0.8
		c-0.6,0.4-1.1,0.9-1.6,1.5c-0.5,0.6-1.1,1.2-1.6,1.8c-0.6,0.6-1.1,1.2-1.8,1.7c-0.6,0.5-1.3,1-2,1.3c-0.8,0.3-1.6,0.5-2.4,0.5
		c-1.9-0.1-3.8-0.9-5.1-2.4c-0.6-0.7-1.1-1.5-1.4-2.4c-0.3-1-0.5-2-0.4-3c0.1-1.2,0.4-2.3,0.9-3.4c0.6-1.3,1.3-2.4,2.3-3.4
		c0.9-0.9,2-1.6,3.2-2L24.2,107.2z"/>
	<path id="Path_3431" class="st1" d="M52.2,67.6c0.1,0.3,0.1,0.6,0.1,0.9c0,0.3-0.1,0.5-0.3,0.7c-0.2,0.2-0.5,0.4-0.8,0.5l-1.2,0.5
		c-0.5,0.2-0.9,0.4-1.4,0.7c-0.5,0.3-1,0.7-1.4,1.2c-0.6,0.7-1,1.6-1.1,2.5c0,0.8,0.4,1.5,1,1.9c0.4,0.3,0.9,0.5,1.4,0.5
		c0.5-0.1,1.1-0.2,1.6-0.5c0.6-0.3,1.2-0.6,1.8-1c0.6-0.4,1.3-0.8,1.9-1.2c0.7-0.4,1.4-0.8,2.1-1.1c0.7-0.3,1.5-0.5,2.3-0.6
		c0.8-0.1,1.6,0,2.4,0.2c0.9,0.3,1.8,0.8,2.5,1.4c0.9,0.7,1.7,1.7,2.3,2.7c0.6,1,0.9,2.1,1,3.2c0.1,1.2-0.1,2.4-0.5,3.5
		c-0.5,1.3-1.2,2.5-2.1,3.6c-0.5,0.7-1.2,1.3-1.8,1.8c-0.7,0.6-1.4,1-2.2,1.5c-0.7,0.4-1.5,0.8-2.3,1c-0.7,0.3-1.5,0.4-2.3,0.5
		l-1.1-3.3c-0.1-0.3-0.1-0.5,0-0.8c0-0.3,0.2-0.5,0.3-0.7c0.3-0.3,0.6-0.5,1-0.6c0.4-0.1,0.9-0.3,1.4-0.5c0.6-0.2,1.1-0.5,1.6-0.8
		c0.6-0.4,1.2-0.9,1.6-1.5c0.6-0.7,1-1.6,1.1-2.5c0-0.9-0.5-1.7-1.2-2.2c-0.4-0.4-0.9-0.6-1.5-0.6c-0.6,0-1.1,0.2-1.6,0.4
		c-0.6,0.3-1.2,0.6-1.7,1c-0.6,0.4-1.2,0.8-1.9,1.3c-0.7,0.4-1.4,0.8-2.1,1.1c-0.7,0.3-1.5,0.5-2.3,0.6c-0.8,0.1-1.7,0-2.5-0.3
		c-1-0.4-1.9-0.9-2.8-1.6c-0.8-0.6-1.4-1.4-1.9-2.3c-0.5-0.9-0.8-2-0.8-3c-0.1-1.1,0.1-2.3,0.5-3.4c0.4-1.3,1.1-2.4,2-3.4
		c0.5-0.6,1.1-1.2,1.7-1.7c0.6-0.5,1.2-1,1.8-1.3c0.6-0.4,1.3-0.7,1.9-0.9c0.6-0.2,1.3-0.4,1.9-0.5L52.2,67.6z"/>
	<path id="Path_3432" class="st1" d="M88.4,45.4c1.2,1.4,2.1,3,2.7,4.8c1.1,3.4,0.8,7.1-0.9,10.2c-1.9,3.4-5.1,6-8.8,7.3
		c-3.4,1.1-7.1,0.8-10.2-1c-3.2-1.8-5.7-4.8-6.9-8.3c-0.5-1.7-0.7-3.4-0.6-5.1c0.2-1.8,0.7-3.5,1.5-5c0.9-1.7,2.2-3.2,3.7-4.4
		c1.5-1.3,3.2-2.2,5.1-2.8c1.7-0.5,3.5-0.7,5.2-0.6c1.7,0.2,3.4,0.7,4.9,1.5C85.8,42.8,87.2,44,88.4,45.4 M83.5,49.5
		c-0.8-0.9-1.7-1.8-2.7-2.4c-0.9-0.6-1.8-1-2.9-1.1c-1-0.2-2-0.1-2.9,0.2c-1,0.3-2,0.9-2.8,1.6c-0.9,0.7-1.6,1.5-2.1,2.5
		c-0.5,0.9-0.7,1.8-0.7,2.8c0,1,0.2,2.1,0.6,3c1,2.2,2.5,4.2,4.6,5.5c0.9,0.6,1.8,1,2.9,1.1c1,0.2,2,0.1,2.9-0.2
		c1-0.3,2-0.9,2.8-1.6c0.8-0.7,1.6-1.5,2.1-2.5c0.5-0.9,0.7-1.8,0.7-2.8c0-1-0.2-2.1-0.6-3C84.9,51.4,84.3,50.4,83.5,49.5"/>
	<path id="Path_3433" class="st1" d="M117.9,36c0.1-0.1,0.3-0.1,0.4-0.1c0.2,0,0.3,0,0.5,0.1l3.4,1.1c-0.3,1.7-1,3.3-2.1,4.7
		c-1.3,1.5-2.8,2.8-4.6,3.7c-1.6,0.9-3.4,1.5-5.3,1.7c-1.7,0.2-3.4,0-5-0.6c-1.6-0.6-3.1-1.5-4.3-2.6c-1.4-1.3-2.5-2.7-3.4-4.4
		c-0.9-1.6-1.5-3.5-1.7-5.3c-0.2-1.7-0.1-3.4,0.4-5.1c0.5-1.6,1.3-3.2,2.4-4.5c1.2-1.4,2.7-2.6,4.3-3.4c0.8-0.5,1.7-0.8,2.6-1.1
		c0.8-0.3,1.7-0.4,2.5-0.5c0.8-0.1,1.6-0.1,2.4,0c0.7,0.1,1.5,0.2,2.2,0.5l-0.5,3.5c0,0.2-0.1,0.4-0.2,0.6c-0.1,0.2-0.3,0.4-0.6,0.5
		c-0.2,0.1-0.4,0.2-0.6,0.2c-0.2,0-0.5,0-0.7,0l-0.9-0.1c-0.3,0-0.7,0-1,0c-0.4,0.1-0.9,0.2-1.3,0.3c-0.5,0.2-1.1,0.4-1.6,0.7
		c-0.9,0.4-1.6,1.1-2.2,1.8c-0.6,0.7-1,1.6-1.2,2.5c-0.2,1-0.2,2,0,3c0.2,1.2,0.7,2.4,1.3,3.4c0.6,1.1,1.3,2.1,2.2,3
		c0.8,0.7,1.6,1.3,2.6,1.7c0.9,0.3,1.8,0.5,2.8,0.4c0.9-0.1,1.9-0.3,2.7-0.8c0.5-0.2,0.9-0.5,1.3-0.8c0.4-0.3,0.7-0.5,1-0.9
		c0.3-0.3,0.5-0.6,0.8-1c0.2-0.4,0.4-0.8,0.6-1.2c0.1-0.2,0.2-0.3,0.3-0.5C117.6,36.2,117.8,36.1,117.9,36"/>
	
		<rect id="Rectangle_2023" x="128.1" y="10.4" transform="matrix(0.9417 -0.3365 0.3365 0.9417 -0.362 45.5434)" class="st1" width="6.2" height="26.8"/>
	<path id="Path_3434" class="st1" d="M173.3,27.2l-4.7,0.9c-0.5,0.1-0.9,0.1-1.4-0.1c-0.4-0.2-0.7-0.5-0.9-0.8l-2.4-4.3l-10,1.9
		l-0.7,4.9c-0.1,0.4-0.3,0.8-0.5,1c-0.3,0.3-0.7,0.6-1.2,0.7l-4.8,0.9l5.1-28.3l6.2-1.2L173.3,27.2z M161.6,19l-3.8-6.7
		c-0.3-0.4-0.6-0.9-0.9-1.5c-0.3-0.6-0.7-1.2-1-1.9c0,0.8-0.1,1.5-0.2,2.1c-0.1,0.7-0.2,1.2-0.3,1.7l-1,7.6L161.6,19z"/>
	<path id="Path_3435" class="st1" d="M197.7,21.6l0.1,5l-16.1,0.3l-0.5-26.8l6.2-0.1l0.4,21.8L197.7,21.6z"/>
</g>
</svg>
